<?xml version="1.0" standalone="no"?>
<!DOCTYPE svg PUBLIC "-//W3C//DTD SVG 1.1//EN" "http://www.w3.org/Graphics/SVG/1.1/DTD/svg11.dtd" >
<svg xmlns="http://www.w3.org/2000/svg">
<metadata></metadata>
<defs>
<font id="ensoenso" horiz-adv-x="1509" >
<font-face units-per-em="2048" ascent="1536" descent="-512" />
<missing-glyph horiz-adv-x="659" />
<glyph unicode="&#xfb01;" horiz-adv-x="1191" d="M49 797v116q0 23 14.5 36.5t34.5 13.5h72q10 0 13 11t3 21q2 82 32 159t86 138.5t138 101.5t191 50q78 8 154.5 -4.5t150.5 -53.5q14 -8 6 -24l-70 -121q-10 -16 -27.5 -22.5t-33.5 0.5q-27 10 -60.5 18t-64.5 8q-66 0 -114 -23.5t-79.5 -61.5t-50 -85t-20.5 -94 q0 -8 12 -12h539q23 0 37 -16.5t14 -39.5v-864q0 -20 -14.5 -34.5t-36.5 -14.5h-141q-18 0 -33 14.5t-15 34.5v688q0 10 -12 11h-338q-12 0 -12 -11v-688q0 -23 -14.5 -36t-34.5 -13h-139q-23 0 -37.5 13.5t-14.5 35.5v688q0 10 -12 11h-74q-20 0 -34.5 14t-14.5 35z" />
<glyph unicode="&#xfb02;" horiz-adv-x="1409" d="M106 799v116q0 23 14.5 36.5t35.5 13.5h69q6 0 11.5 3t5.5 29q2 82 31.5 159t86 138.5t138.5 101.5t190 50q53 4 103.5 2t99.5 -16q8 4 16 4h189q12 0 20 -9.5t8 -19.5v-1378q0 -10 -8 -19.5t-20 -9.5h-189q-12 0 -20 9t-8 20v1136q0 29 -18.5 51.5t-47.5 26.5 q-14 2 -30.5 3t-39.5 1q-39 0 -84 -17.5t-84.5 -51t-66.5 -84t-27 -115.5q0 -14 13 -14h241q23 0 37 -13.5t14 -36.5v-116q0 -20 -14 -34.5t-37 -14.5h-243q-12 0 -13 -13v-688q0 -23 -14 -36t-35 -13h-139q-23 0 -37 13.5t-14 35.5v688q0 12 -11 13h-73q-20 0 -35 14 t-15 35z" />
<glyph unicode="&#xfb03;" horiz-adv-x="1798" d="M31 797v116q0 23 14 36.5t35 13.5h86v22q0 6 2 10q2 82 31.5 159t86 138.5t138.5 101.5t190 50q78 8 155 -4.5t151 -53.5q4 -2 8 -10q0 -10 -2 -14l-70 -121q-10 -16 -27.5 -22.5t-33.5 0.5q-27 10 -61 18t-64 8q-72 0 -122 -26.5t-81 -67.5t-46 -91t-15 -97h428 q10 0 13 11t3 21q2 82 31.5 159t86 138.5t138.5 101.5t190 50q78 8 155 -4.5t151 -53.5q4 -2 8 -10q0 -10 -2 -14l-70 -121q-10 -16 -27.5 -22.5t-33.5 0.5q-27 10 -61 18t-64 8q-66 0 -114 -23.5t-80 -61.5t-50 -85t-21 -94q0 -8 13 -12h538q23 0 37.5 -16.5t14.5 -39.5 v-864q0 -20 -14.5 -34.5t-37.5 -14.5h-141q-18 0 -32.5 14.5t-14.5 34.5v688q0 10 -12 11h-338q-12 0 -13 -11v-688q0 -23 -14 -36t-35 -13h-139q-23 0 -37 13.5t-14 35.5v688q0 10 -10 11h-432v-699q0 -23 -14.5 -36t-35.5 -13h-139q-23 0 -37 13.5t-14 35.5v699h-86 q-20 0 -34.5 14t-14.5 35z" />
<glyph unicode="&#xfb04;" horiz-adv-x="1921" d="M35 797v116q0 23 14 36.5t35 13.5h72q12 0 16 14v18q2 82 31.5 159t86 138.5t138.5 101.5t190 50q78 8 155 -4.5t151 -53.5q14 -8 6 -24l-70 -121q-10 -16 -27.5 -22.5t-33.5 0.5q-27 10 -60.5 18t-64.5 8q-45 0 -90 -24.5t-82 -63.5t-61.5 -87t-28.5 -93q0 -14 12 -14 h317h72q14 0 14 14v12q0 4 2 6q2 82 32 159t86.5 138.5t138 101.5t190.5 50q51 4 101 2t100 -16q12 4 16 4h190q12 0 20.5 -9.5t8.5 -19.5v-1376q0 -10 -8 -19.5t-21 -9.5h-47h-96h-47q-12 0 -20.5 9t-8.5 20v1134q0 29 -17 51.5t-46 26.5q-14 2 -30.5 3t-39.5 1 q-39 0 -85 -17.5t-86 -51t-66.5 -84t-26.5 -115.5q0 -14 12 -14h242q23 0 37 -13.5t14 -36.5v-116q0 -20 -14.5 -34.5t-36.5 -14.5h-242q-12 0 -12 -13v-686q0 -23 -14.5 -36t-34.5 -13h-139q-23 0 -37.5 13.5t-14.5 35.5v686q0 12 -12 13h-393q-12 0 -12 -13v-686 q0 -23 -14.5 -36t-35.5 -13h-139q-23 0 -37 13.5t-14 35.5v686q0 12 -10 13h-76q-20 0 -34.5 14t-14.5 35z" />
<glyph horiz-adv-x="0" />
<glyph horiz-adv-x="0" />
<glyph unicode="&#xd;" horiz-adv-x="659" />
<glyph unicode=" "  horiz-adv-x="659" />
<glyph unicode="&#x09;" horiz-adv-x="659" />
<glyph unicode="&#xa0;" horiz-adv-x="659" />
<glyph unicode="!" horiz-adv-x="636" d="M156 141q0 33 13 62.5t34.5 52.5t50.5 36t61 13q33 0 64 -13t52.5 -36t34.5 -52.5t13 -62.5q0 -66 -48 -113.5t-116 -47.5q-33 0 -61.5 13t-50 34.5t-34.5 51t-13 62.5zM176 1182v237q0 12 9.5 21.5t21.5 9.5h225q12 0 21.5 -9t9.5 -22v-233l-82 -590q-2 -10 -11.5 -17.5 t-19.5 -7.5h-61q-12 0 -21.5 7.5t-9.5 17.5z" />
<glyph unicode="&#x22;" horiz-adv-x="735" d="M82 1081v338q0 12 9 21.5t20 9.5h168q14 0 23 -12.5t3 -28.5l-86 -334q-4 -8 -12 -15t-14 -7h-82q-10 0 -19.5 9t-9.5 19zM440 1081v338q0 12 9.5 21.5t19.5 9.5h170q14 0 22.5 -12.5t4.5 -28.5l-86 -334q-4 -8 -12.5 -15t-16.5 -7h-82q-10 0 -19.5 9t-9.5 19z" />
<glyph unicode="#" horiz-adv-x="1222" d="M78 399v31q0 29 28 29h173l59 409h-164q-10 0 -20.5 10.5t-10.5 20.5v29q0 10 10.5 19t20.5 9h174l68 467q4 27 26 27h29q14 0 23.5 -9t5.5 -26l-64 -459h434l70 467q0 10 9 18.5t20 8.5h26q14 0 23.5 -9t5.5 -26l-68 -459h148q12 0 20.5 -9t8.5 -19v-29 q0 -10 -8.5 -20.5t-20.5 -10.5h-158l-59 -409h149q10 0 20.5 -8.5t10.5 -20.5v-31q0 -10 -10 -19t-21 -9h-164l-41 -346q-4 -25 -30 -25h-27q-12 0 -20.5 10t-8.5 23l43 338h-438l-45 -346q-4 -25 -29 -25h-24q-39 0 -31 33l47 338h-162q-12 0 -20 9t-8 19zM365 459h436 l57 409h-434z" />
<glyph unicode="$" horiz-adv-x="1079" d="M76 164.5q-6 9.5 2 21.5l26 50q12 23 25.5 45t28 38.5t29 21.5t28.5 -5q2 -2 25.5 -18.5t59.5 -37t83 -42t96 -35.5q6 -2 10 2q4 2 5 8v203q0 49 1 100t1 102q0 6 -7 11q-74 29 -146.5 66.5t-131.5 90t-96 125t-37 172.5q0 72 24.5 138.5t74.5 119t128 86t182 43.5 q10 4 11 13v67q0 12 9 20.5t19 8.5h29q10 0 19.5 -8t9.5 -21v-69q0 -8 10 -13q70 -6 130 -24.5t106.5 -39t77 -39.5t44.5 -30h2q10 -6 13.5 -21.5t-0.5 -29.5q0 -2 -1 -2t-1 -2q-4 -4 -10.5 -14.5t-10.5 -16.5q-14 -23 -28.5 -46t-30 -39.5t-29.5 -25t-27 0.5h-2l-22 12 q-31 16 -85 47t-120 53q-6 4 -10 0q-6 -4 -6 -10v-377q0 -8 8 -12q68 -29 142.5 -68t137 -94t103.5 -129t41 -172q0 -84 -27.5 -153.5t-82 -123t-133.5 -86t-181 -40.5q-12 0 -12 -11v-219q0 -27 -33 -26q-16 0 -34.5 4t-18.5 22v219q0 10 -11 11q-84 6 -149.5 26.5 t-114.5 45t-81 48t-46 37.5v2q-10 10 -16 19.5zM313 1114q0 -66 39 -115t123 -96q8 0 12 2q4 4 5 8v334q0 8 -5 10q-2 2 -8 3q-86 -14 -126 -55.5t-40 -90.5zM584 207q0 -6 4 -10l4 -2q4 -5 10 -5q70 12 115 58.5t45 109.5t-40 115.5t-120 104.5q-6 2 -12 0q-6 -4 -6 -11 v-360z" />
<glyph unicode="%" horiz-adv-x="1378" d="M49 1198q0 55 21.5 105.5t58.5 87t86 58t107 21.5q55 0 105 -21.5t87 -58t58.5 -87t21.5 -105.5q0 -57 -21.5 -107.5t-58.5 -87t-87 -58t-105 -21.5q-57 0 -106.5 21.5t-86.5 58t-58.5 87t-21.5 107.5zM209 1198q0 -47 33 -81t80 -34t78.5 34t31.5 81q0 45 -31.5 78 t-78.5 33t-80 -33t-33 -78zM219 43l719 1393q6 14 29 14h104q16 0 26.5 -13.5t0.5 -29.5l-723 -1393q-4 -4 -11.5 -9t-17.5 -5h-100q-16 0 -25.5 13.5t-1.5 29.5zM739 252q0 57 21.5 106.5t59.5 86t87 58t105 21.5q57 0 107 -21.5t88 -58t59.5 -86t21.5 -106.5t-21.5 -106.5 t-59.5 -86t-88 -58t-107 -21.5q-55 0 -104.5 21.5t-87.5 58t-59.5 86t-21.5 106.5zM899 252q0 -47 33 -80t80 -33t80.5 33t33.5 80t-33.5 78.5t-80.5 31.5t-80 -31.5t-33 -78.5z" />
<glyph unicode="&#x26;" horiz-adv-x="1333" d="M76 358q0 84 32.5 152t77.5 119t90.5 85t71.5 52q23 16 4 35q-82 90 -127 164.5t-47 169.5q0 74 32 135t85 104t122.5 67.5t147.5 24.5q86 0 157 -26.5t121 -71.5t78.5 -105.5t30.5 -127.5q2 -61 -26.5 -120t-68.5 -108t-81 -85t-63 -54q-8 -4 -10.5 -15.5t6.5 -19.5 l219 -221q10 -6 18 -7t19 15q25 53 42 110.5t27 108.5q4 29 14.5 42.5t41.5 2.5l116 -34q29 -8 31 -29t-2 -37q-25 -104 -62.5 -192.5t-62.5 -135.5q-8 -16 6 -26q45 -43 89 -86t87 -84l15.5 -15.5t9.5 -15.5t-3 -19.5t-22 -27.5q-23 -23 -45 -46.5t-45 -45.5 q-16 -16 -34.5 -15.5t-37.5 19.5q-2 4 -18 20l-127 127q-18 18 -33 0q-23 -20 -59.5 -49t-92 -54.5t-128 -44t-162.5 -18.5q-98 0 -178 31t-137.5 83t-88 122t-30.5 147zM305 387q2 -92 67.5 -150.5t164.5 -58.5q55 0 98 12.5t75.5 31t56.5 39t40 36.5q14 14 0 31l-301 319 q-10 14 -29 4q-16 -10 -46 -32.5t-57.5 -56.5t-48 -78t-20.5 -97zM391 1135q0 -59 41 -112.5t113 -125.5q14 -14 28 -2q16 12 46 33.5t58 52.5t48 66.5t20 74.5q0 66 -50 117t-138 51q-68 0 -116 -41.5t-50 -113.5z" />
<glyph unicode="'" horiz-adv-x="358" d="M41 1081v338q0 12 9 21.5t20 9.5h188q14 0 23.5 -12.5t5.5 -28.5l-99 -334q-6 -8 -14 -15t-14 -7h-90q-10 0 -19.5 9t-9.5 19z" />
<glyph unicode="(" horiz-adv-x="755" d="M66 651q0 244 53 400.5t134 248t178 128t185 40.5q12 2 20.5 -4t8.5 -16l6 -141q2 -10 -3 -17.5t-13 -7.5q-160 -43 -247 -202.5t-87 -428.5q0 -268 87 -426.5t247 -201.5q10 -2 14 -10.5t2 -16.5v-2l-6 -137q-8 -23 -29 -23q-86 8 -183 48t-179 131t-135 246t-53 392z " />
<glyph unicode=")" horiz-adv-x="790" d="M68 -4q-2 8 2 16t14 11q160 43 247 201.5t87 426.5t-87 428t-247 203q-8 0 -13 7t-3 18l6 141q0 10 8 16t20 4q88 -4 185.5 -40.5t178.5 -128t134 -248t53 -400.5q0 -238 -53 -392.5t-135 -245.5t-179.5 -131t-183.5 -48q-20 0 -28 23l-6 137v2z" />
<glyph unicode="*" horiz-adv-x="774" d="M53 969q-12 16 17 30l188 115l-188 113q-27 16 -11 45v-4l19 28l20 29q6 8 16.5 10t20.5 -4l170 -114l-6 202q0 12 10 21.5t21 9.5h67q10 0 19.5 -9t9.5 -22l-4 -205l168 119q10 4 21.5 3t17.5 -11v2l43 -70q12 -16 -15 -30l-188 -113l188 -117q10 -6 12.5 -17t-1.5 -22 l-33 -47q-10 -16 -23.5 -20t-21.5 0l-168 115l4 -199q0 -10 -9 -20.5t-20 -10.5h-67q-10 0 -20.5 10.5t-10.5 20.5l6 201l-170 -115q-10 -6 -21.5 -4t-17.5 12v-2z" />
<glyph unicode="+" horiz-adv-x="1173" d="M137 657v117q0 12 9.5 21.5t21.5 9.5h303q23 0 23 22v306q0 10 9 18t19 8h117q10 0 20.5 -8t10.5 -18v-306q0 -23 22 -22h305q10 0 18.5 -9.5t8.5 -21.5v-117q0 -10 -8 -19t-19 -9h-305q-23 0 -22 -23v-301q0 -10 -10.5 -19.5t-20.5 -9.5h-117q-10 0 -19 9.5t-9 19.5v301 q0 23 -23 23h-303q-12 0 -21.5 9t-9.5 19z" />
<glyph unicode="," horiz-adv-x="378" d="M35 109q0 53 40 92t99 39q27 0 56.5 -10.5t54 -35t41 -65.5t16.5 -102q0 -111 -57.5 -204t-143.5 -177q-14 -14 -30.5 -13.5t-30.5 15.5l-19 20q-12 12 -9 30.5t16 29.5q23 23 49 48t48.5 53t35 57.5t6.5 64.5q-2 8 -11.5 19.5t-31.5 9.5q-53 -4 -91 35.5t-38 93.5z" />
<glyph unicode="-" horiz-adv-x="1032" d="M135 510v119q0 10 8.5 19t20.5 9h684q14 0 22.5 -9t8.5 -19v-119q0 -12 -8.5 -21.5t-22.5 -9.5h-684q-12 0 -20.5 9.5t-8.5 21.5z" />
<glyph unicode="." horiz-adv-x="460" d="M82 141q0 66 47 115t113 49q33 0 63.5 -13t52 -36t35 -52.5t13.5 -62.5q0 -66 -48.5 -113.5t-115.5 -47.5q-66 0 -113 47.5t-47 113.5z" />
<glyph unicode="/" horiz-adv-x="735" d="M68 39l411 1391q6 20 27 20h151q16 0 23.5 -12.5t3.5 -28.5l-410 -1391q-8 -18 -26 -18h-154q-14 0 -22.5 11.5t-3.5 27.5z" />
<glyph unicode="0" horiz-adv-x="1277" d="M100 705q0 170 39 304t109.5 227t171 142t223.5 49t224.5 -49t172 -142t109.5 -227.5t39 -303.5q0 -170 -39 -305.5t-109.5 -228.5t-172 -142t-224.5 -49t-223.5 49t-171 142t-109.5 228.5t-39 305.5zM354 705q0 -242 81 -370t208 -128t209 128t82 370q0 238 -82 367.5 t-209 129.5t-208 -130t-81 -367z" />
<glyph unicode="1" horiz-adv-x="700" d="M61 1059v78q-4 14 9 26l292 242q6 6 15 6h133q12 0 20.5 -9t8.5 -20v-1349q0 -10 -8.5 -19.5t-20.5 -9.5h-180q-12 0 -20.5 9.5t-8.5 19.5v983q0 23 -29 22h-182q-10 0 -19.5 4.5t-9.5 16.5z" />
<glyph unicode="2" horiz-adv-x="1064" d="M76 29v37q0 8 6 14q49 61 115.5 146t139.5 178.5t145.5 188.5t133.5 177q47 59 79 122.5t32 117.5q0 37 -14.5 73.5t-43 65.5t-72.5 46t-103 17q-72 0 -135.5 -37.5t-110.5 -91.5q-8 -8 -19.5 -8t-19.5 10l-103 103q-18 18 -2 37q39 39 83 75.5t94.5 65.5t107.5 45 t123 16q111 0 197 -32.5t144 -88t89 -130t31 -156.5q0 -96 -41 -172t-101 -162q-82 -115 -170 -223.5t-176 -222.5q-6 -10 -2 -23.5t21 -13.5h428q10 0 20.5 -9.5t10.5 -19.5v-145q0 -10 -10.5 -19.5t-20.5 -9.5h-828q-12 0 -20 9t-8 20z" />
<glyph unicode="3" horiz-adv-x="1064" d="M73 177q1 11 7 20l106 104q23 16 41 0v2q2 -4 25.5 -22.5t60.5 -40t84 -39t97 -17.5q45 0 87 15.5t74.5 43t52 65.5t19.5 85q0 43 -19.5 82t-58.5 69.5t-94 48t-129 17.5h-117q-31 0 -30 33v131q0 33 30 33h117q135 0 202.5 58.5t67.5 144.5q0 45 -17 82.5t-47 65.5 t-68 42t-81 14q-86 0 -140 -35.5t-81 -68.5q-6 -6 -18.5 -6t-22.5 6l-104 96q-8 8 -7 18.5t9 18.5q47 51 106 90q51 35 123 63.5t158 28.5q88 0 168 -25.5t139 -74.5t94 -117.5t35 -154.5q0 -51 -16.5 -97.5t-44 -86.5t-61.5 -70.5t-68 -50.5q-10 -6 -10 -19.5t10 -21.5 q37 -23 77.5 -54.5t74.5 -72.5t55.5 -91.5t21.5 -111.5q0 -86 -34 -160t-96.5 -127t-149.5 -83t-193 -30q-96 0 -169 20.5t-125 50.5t-85 60.5t-49 51.5q-8 6 -7 17z" />
<glyph unicode="4" horiz-adv-x="1224" d="M35 334v162q0 8 6 14l747 909q10 10 23 11h115q10 0 19 -8.5t9 -20.5v-883q0 -23 23 -22h156q12 0 21 -8.5t9 -18.5v-131q0 -10 -9 -19.5t-21 -9.5h-154q-10 0 -16 -6q-8 -6 -9 -16q0 -98 1 -151.5t1 -78.5v-32q-2 -10 -10 -17.5t-18 -7.5h-174q-12 0 -21.5 9t-9.5 20 v254q0 23 -23 22h-637q-12 0 -20 9.5t-8 19.5zM307 516.5q4 -14.5 21 -14.5h381q23 0 22 22v459q0 16 -15.5 21.5t-25.5 -7.5l-379 -456q-8 -10 -4 -24.5z" />
<glyph unicode="5" horiz-adv-x="1097" d="M117 179q-2 11 12 28l102 102q8 6 17.5 9.5t19.5 -5.5q51 -51 124 -87t155 -36q55 0 102 21.5t81 56.5t52.5 82t18.5 99q0 51 -17.5 96t-50.5 77.5t-83 52t-113 19.5h-324q-27 0 -41 20.5t-14 43.5v620q0 10 9 19.5t21 9.5h664q12 0 20.5 -9t8.5 -20v-143 q0 -10 -8.5 -19.5t-20.5 -9.5h-453q-10 0 -17 -6t-7 -16v-256q0 -10 7 -16.5t17 -6.5h166q111 0 198 -33.5t147.5 -93t93 -144.5t32.5 -185q0 -96 -37.5 -181.5t-104.5 -150t-158 -101t-197 -36.5q-84 0 -149.5 17t-117 44t-86 56.5t-53.5 52.5q-14 18 -16 29z" />
<glyph unicode="6" horiz-adv-x="1079" d="M70 545q0 152 40 274.5t103 220t142 169t156 121.5t143.5 79t107.5 41q31 10 43 -20q0 -2 1 -4.5t6 -14.5t14.5 -36.5t27.5 -69.5q12 -33 -31 -48q-35 -10 -97 -39.5t-131 -77.5t-131.5 -115t-96.5 -151q-8 -16 4 -28t26 -2q41 18 97.5 33.5t109.5 15.5q78 0 152.5 -28.5 t134 -84t95.5 -139.5t36 -195q0 -96 -37 -182t-100.5 -150.5t-147.5 -101.5t-178 -37q-121 0 -213 46.5t-153.5 124t-92 181t-30.5 218.5zM305 446q0 -53 20.5 -98t54.5 -80t80 -54t99 -19q51 0 98.5 19t81 54t54 80t20.5 98t-20.5 99.5t-54 81.5t-81 54t-98.5 19 q-53 0 -99 -19t-80 -54t-54.5 -81t-20.5 -100z" />
<glyph unicode="7" horiz-adv-x="1044" d="M66 1235v147q0 10 9 19.5t19 9.5h875q10 0 19 -9t9 -20q0 -12 -2 -14l-583 -1317q-10 -23 -20.5 -37t-33.5 -14h-161q-16 0 -29.5 5t-13.5 24v14q0 4 1 6t1 4l493 1121q6 10 0 21t-20 11h-535q-10 0 -19 9.5t-9 19.5z" />
<glyph unicode="8" horiz-adv-x="1175" d="M100 371q0 57 25 108t61.5 94t76.5 76t71 53q10 6 10 18.5t-10 20.5q-33 23 -68 54.5t-63.5 70.5t-47 86t-18.5 101q0 86 35 154.5t95.5 116.5t142.5 74.5t174 26.5q96 0 179 -26.5t143.5 -74.5t95 -116.5t34.5 -154.5q0 -63 -20.5 -113.5t-49 -89.5t-59 -66.5 t-53.5 -42.5q-10 -6 -11 -18.5t11 -20.5q37 -23 76 -55.5t70.5 -74.5t53 -93t21.5 -108q0 -84 -34.5 -156t-98 -125t-155 -83t-203.5 -30q-111 0 -200 30t-152.5 83t-97.5 125t-34 156zM358 375q0 -47 18.5 -84t50.5 -64.5t74 -42t87 -14.5t86 14.5t72.5 42t50 64.5t18.5 84 q0 72 -57.5 139.5t-163.5 89.5q-6 4 -10 0q-111 -23 -168.5 -90.5t-57.5 -138.5zM385 1042q0 -72 46 -127t149 -81q10 -6 20 0q12 4 43 17t63.5 37.5t57 62.5t24.5 91q0 80 -59 134.5t-145 54.5q-41 0 -77 -14.5t-63.5 -40t-43 -60.5t-15.5 -74z" />
<glyph unicode="9" horiz-adv-x="1142" d="M70 971q0 96 36.5 182t100 150.5t147.5 101.5t178 37q121 0 214.5 -45t156 -122t94 -180t31.5 -218q0 -152 -41 -275t-104.5 -220t-143.5 -170t-157.5 -124t-145 -81t-106.5 -40q-35 -10 -43 21h-2l-47 125q-10 33 30 47q35 10 97.5 39.5t131 78t131 115t97.5 150.5 q8 18 -3 28.5t-28 1.5q-41 -18 -97 -33.5t-110 -15.5q-78 0 -152.5 29t-134 84t-95 139t-35.5 195zM279 971q0 -53 20 -99.5t54 -81t80 -54t99 -19.5q51 0 98.5 19.5t81 54t54 81t20.5 99.5q0 51 -20.5 97t-54 81t-80.5 54.5t-99 19.5q-53 0 -99 -19.5t-80 -54.5t-54 -81 t-20 -97z" />
<glyph unicode=":" horiz-adv-x="544" d="M137 119q0 59 41 100t101 41q59 0 99 -41t40 -100q0 -57 -40 -98t-99 -41t-100.5 41t-41.5 98zM137 700q0 57 41 98.5t101 41.5q59 0 99 -41t40 -99q0 -59 -40 -100t-99 -41t-100.5 41t-41.5 100z" />
<glyph unicode=";" horiz-adv-x="456" d="M106 700q0 57 40 98.5t100 41.5q59 0 100 -41t41 -99q0 -59 -41 -100t-100 -41t-99.5 41t-40.5 100zM113 109q0 53 40 92t99 39q27 0 56.5 -10.5t54 -35t41 -65.5t16.5 -102q0 -111 -57.5 -204t-143.5 -177q-14 -14 -30.5 -13.5t-30.5 15.5l-19 20q-12 12 -9 30.5 t15 29.5q23 23 49.5 48t49 53t35 57.5t6.5 64.5q-2 8 -11.5 19.5t-31.5 9.5q-53 -4 -91 35.5t-38 93.5z" />
<glyph unicode="&#x3c;" horiz-adv-x="954" d="M68 463v16q0 17 16 27l707 467h2q16 10 29.5 2t13.5 -29v-147q0 -10 -4.5 -15.5t-10.5 -9.5q-35 -23 -98.5 -62.5t-129 -83.5t-122.5 -83t-82 -58q-4 -4 -4 -10t6 -8l428 -260h2q14 -10 15 -27v-147q0 -18 -13.5 -26.5t-29.5 1.5h-2l-707 430q-16 12 -16 23z" />
<glyph unicode="=" horiz-adv-x="1032" d="M135 276v119q0 10 8.5 19.5t20.5 9.5h684q14 0 22.5 -9t8.5 -20v-119q0 -12 -8.5 -21t-22.5 -9h-684q-12 0 -20.5 9t-8.5 21zM135 760v117q0 12 8.5 21t20.5 9h684q14 0 22.5 -9t8.5 -21v-117q0 -10 -8.5 -19.5t-22.5 -9.5h-684q-12 0 -20.5 9.5t-8.5 19.5z" />
<glyph unicode="&#x3e;" horiz-adv-x="933" d="M68 35v147q0 16 14 27h2l428 260q6 2 6 8t-4 10q-25 18 -82 57.5t-123.5 83.5t-129 84t-97.5 62q-6 4 -10 9t-4 16v147q0 20 13 28.5t30 -1.5h2l706 -467q16 -10 17 -27v-16q0 -10 -17 -23l-706 -430h-2q-16 -10 -29.5 -2t-13.5 27z" />
<glyph unicode="?" horiz-adv-x="970" d="M55 1282q45 53 107 94q53 35 129 64.5t174 29.5q80 0 152.5 -25.5t127 -70.5t86 -108.5t31.5 -137.5q0 -55 -18.5 -99t-47 -81t-63.5 -66.5t-69 -54.5q-25 -18 -50.5 -34.5t-46 -40t-33 -58.5t-12.5 -90q0 -33 -33 -33h-129q-23 0 -28 29q-12 66 -3 117t30.5 89t51 67.5 t58.5 52.5q53 45 94 89t41 97q0 61 -47 102t-133 48q-74 4 -123 -27t-78 -59l-30 -25q-10 -4 -19.5 -4t-15.5 6l-99 96q-18 18 -4 33zM297 141q0 33 13.5 62.5t35 52.5t51 36t62.5 13t63.5 -13t52 -36t35 -52.5t13.5 -62.5q0 -66 -48.5 -113.5t-115.5 -47.5q-66 0 -114 47.5 t-48 113.5z" />
<glyph unicode="@" horiz-adv-x="2113" d="M70 426q0 231 83 421.5t227 327t338 211t415 74.5q215 0 385 -68.5t287.5 -189.5t179 -283.5t61.5 -349.5q0 -102 -24.5 -210.5t-80 -198.5t-144.5 -147.5t-218 -57.5q-59 0 -101 18.5t-71 44.5q-35 31 -53.5 72t-18.5 88v311q-4 84 -41 140.5t-100 91.5 q-49 27 -102.5 32t-102.5 -9.5t-91 -46t-69 -79.5q-41 -70 -29.5 -148.5t56.5 -141t118 -94t156 -7.5q20 6 35 -3t25 -25l55 -152q6 -16 -14 -24q-113 -37 -215.5 -27t-187.5 55t-146 119t-92 164t-25 190.5t58 200.5q45 86 122.5 147.5t170 89t188.5 17.5t178 -68 q14 -16 27.5 -12t13.5 27q0 20 15.5 36.5t35.5 16.5h148q23 0 38 -16.5t15 -36.5v-758q0 -20 29 -21q53 0 95 34t71.5 90.5t45 131t15.5 156.5q0 147 -45 273t-134 219.5t-221.5 146.5t-306.5 53q-176 0 -327.5 -54t-262 -158.5t-173 -256t-62.5 -348.5q0 -129 48 -244.5 t128 -212t182.5 -171t212.5 -123.5q27 -12 19 -35l-62 -154q-10 -25 -30 -16q-141 51 -272.5 144t-233 217t-161.5 273.5t-60 313.5z" />
<glyph unicode="A" d="M94 37q0 -2 3 5t20.5 47t56.5 125t110.5 240.5t182.5 394t272 587.5q8 16 25 16h20q14 0 19.5 -5t9.5 -11l3 -6q3 -7 20.5 -45.5t56.5 -123.5t109.5 -241t180 -394.5t269.5 -586.5q3 -7 3 -13q0 -8 -5 -14q-8 -12 -25 -12h-180q-37 0 -51 35l-12 28q-10 23 -29.5 67 t-56.5 130q-4 6 -11 6h-624q-8 0 -10 -6l-103 -225q-6 -14 -17.5 -24.5t-31.5 -10.5h-180q-17 0 -25 10q-4 5 -4 12t4 15zM554 479q3 -6 11 -6h416q4 0 9 6q3 3 3 6q0 2 -2 4l-207 457q-4 6 -11 6t-11 -6l-207 -457q-2 -2 -2 -5q0 -2 1 -5z" />
<glyph unicode="B" horiz-adv-x="1269" d="M231 29v1376q0 10 8.5 19.5t20.5 9.5h434q90 0 168 -29t136.5 -79t91 -118.5t32.5 -148.5q0 -53 -17.5 -100.5t-45 -88.5t-63 -73.5t-72.5 -53.5q-6 -4 -6 -10v-6q0 -10 8 -10q43 -18 85 -47t75.5 -70t55 -93t21.5 -116q0 -86 -34.5 -157.5t-94 -124t-140.5 -81 t-173 -28.5h-461q-12 0 -20.5 9t-8.5 20zM475 238q0 -12 12 -13h211q82 0 139.5 56.5t57.5 142.5q0 41 -18.5 76t-50 60.5t-71.5 39.5t-83 14h-185q-12 0 -12 -12v-364zM475 836q0 -12 12 -13h181q86 0 138 56.5t52 140.5t-52 135t-138 51h-181q-12 0 -12 -12v-358z" />
<glyph unicode="C" horiz-adv-x="1415" d="M88 715q0 154 58.5 289t157.5 234t234.5 157.5t288.5 58.5q158 0 276 -48t222 -142q10 -12 10 -22.5t-10 -20.5l-127 -131q-18 -18 -37 2q-68 59 -152.5 90.5t-174.5 31.5q-102 0 -189.5 -38.5t-150 -106.5t-98.5 -158t-36 -190t36 -189.5t99.5 -156t150.5 -105.5 t190 -39q96 0 177 33t148 86q10 10 20.5 9t16.5 -9v2l131 -133q6 -8 6 -17q0 -14 -10 -24h2q-104 -102 -232 -150t-268 -48q-154 0 -289 57t-234 156.5t-157.5 233.5t-58.5 288z" />
<glyph unicode="D" horiz-adv-x="1527" d="M236 29v1376q0 10 8 19.5t18 9.5h449q147 0 278 -56.5t229.5 -154t155 -227.5t56.5 -277q0 -150 -56.5 -281t-155 -228t-229.5 -153.5t-278 -56.5h-449q-10 0 -18 9t-8 20zM477 246q0 -12 12 -13h197q104 0 191.5 37t151 101.5t99 153.5t35.5 194q0 104 -35.5 192 t-99 152.5t-150.5 101.5t-192 37h-197q-12 0 -12 -12v-944z" />
<glyph unicode="E" horiz-adv-x="1208" d="M238 29v1376q0 10 8 19.5t20 9.5h803q12 0 20.5 -9.5t8.5 -19.5v-170q0 -10 -8.5 -20.5t-20.5 -10.5h-573q-12 0 -13 -12v-336q0 -12 13 -12h473q10 0 19 -9.5t9 -19.5v-174q0 -12 -9 -20.5t-19 -8.5h-473q-12 0 -13 -12v-358q0 -12 13 -13h573q12 0 20.5 -10t8.5 -20 v-170q0 -10 -8.5 -19.5t-20.5 -9.5h-803q-12 0 -20 9t-8 20z" />
<glyph unicode="F" horiz-adv-x="1171" d="M266 29v1376q0 10 8.5 19.5t20.5 9.5h803q12 0 20 -9.5t8 -19.5v-170q0 -10 -8 -20.5t-20 -10.5h-574q-12 0 -12 -12v-385q0 -12 12 -12h473q10 0 19.5 -10.5t9.5 -20.5v-170q0 -10 -9 -19.5t-20 -9.5h-473q-12 0 -12 -12v-524q0 -10 -9 -19.5t-20 -9.5h-188 q-12 0 -20.5 9t-8.5 20z" />
<glyph unicode="G" horiz-adv-x="1447" d="M86 715q0 154 57.5 289t157.5 234t233.5 157.5t286.5 58.5q141 0 267 -49t231 -139q10 -8 13 -22.5t-9 -24.5l-16 -17q-12 -12 -39 -38.5t-74 -76.5q-18 -20 -39 0q-70 59 -151.5 90t-169.5 31q-98 0 -185.5 -39t-152 -106.5t-101.5 -156.5t-37 -189q0 -98 37 -187.5 t101.5 -155t151.5 -104.5t188 -39q88 0 152.5 18.5t98.5 33.5q6 2 7 10v174q0 12 -11 12h-211q-23 0 -34 14.5t-11 26.5v139q0 16 11.5 28.5t29.5 12.5h437q18 0 28 -12t10 -29v-512q0 -10 -6 -20t-10 -14h-2q-4 -2 -44 -22.5t-107.5 -45.5t-157.5 -44t-195 -19 q-154 0 -287 57t-233 155.5t-157.5 232.5t-57.5 288z" />
<glyph unicode="H" horiz-adv-x="1392" d="M143 49v1342q0 18 15.5 31.5t38.5 13.5h135q18 0 33.5 -13.5t15.5 -31.5v-525q0 -12 12 -12h600q10 0 11 12v525q0 18 14 31.5t39 13.5h131q23 0 37 -13.5t14 -31.5v-1342q0 -20 -14.5 -34.5t-36.5 -14.5h-131q-25 0 -39 14.5t-14 34.5v553q0 12 -11 12h-600 q-12 0 -12 -12v-553q0 -20 -15.5 -34.5t-33.5 -14.5h-135q-23 0 -38.5 14.5t-15.5 34.5z" />
<glyph unicode="I" horiz-adv-x="612" d="M188 29v1376q0 10 9.5 19.5t19.5 9.5h191q10 0 19 -9.5t9 -19.5v-1376q0 -10 -9 -19.5t-19 -9.5h-191q-10 0 -19.5 9t-9.5 20z" />
<glyph unicode="J" horiz-adv-x="884" d="M2 127q-6 9 -6 17q0 11 10 22v-2l107 108h-2q29 18 49 -2v2q23 -23 56.5 -47t88.5 -24q31 0 62.5 13t57.5 41t42 70t16 97v983q0 10 8.5 19.5t20.5 9.5h193q12 0 20 -9.5t8 -19.5v-981q0 -106 -32.5 -189t-90 -139.5t-135.5 -86t-166 -29.5q-66 0 -118 17t-90 40.5 t-62.5 48.5t-36.5 41z" />
<glyph unicode="K" horiz-adv-x="1323" d="M203 39v1356q0 16 11 27.5t28 11.5h178q16 0 28.5 -11.5t12.5 -27.5v-527q0 -16 13 -22t26 6l499 565h2q12 16 33 17h207q20 0 29.5 -18.5t-4.5 -35.5l-516 -587q-20 -23 -18.5 -37.5t16.5 -30.5q4 -6 46 -56.5t101 -123t129 -155.5t130 -155.5t102 -124t49 -57.5 q5 -9 5 -18t-4 -17q-8 -18 -30 -18h-225q-25 0 -31 10l-66 80q-25 31 -62.5 77t-92 113.5t-128 158.5t-169.5 212q-10 12 -25.5 8t-15.5 -22v-598q0 -16 -12.5 -27.5t-28.5 -11.5h-178q-16 0 -27.5 11.5t-11.5 27.5z" />
<glyph unicode="L" horiz-adv-x="1132" d="M193 29v1376q0 10 8 19.5t20 9.5h189q10 0 19 -9.5t9 -19.5v-1163q0 -12 13 -13h569q12 0 20.5 -10t8.5 -20v-170q0 -10 -8.5 -19.5t-20.5 -9.5h-799q-12 0 -20 9t-8 20z" />
<glyph unicode="M" horiz-adv-x="1705" d="M59 37l240 1395q4 22 25 22h2h59q18 0 27 -14l434 -979q10 -18 22 0q109 244 184.5 411.5t124 276t75 167t39 86.5t15.5 32t3 6q6 14 26 14h58q23 0 26 -22q45 -262 80 -462t59.5 -347.5t42 -248t29.5 -165.5l31 -176q1 -5 1 -9q0 -24 -28 -24h-190q-10 0 -18.5 8 t-10.5 17l-123 782q0 8 -8 10t-12 -6l-371 -815q-8 -16 -24 -16h-37q-16 0 -25 16q-2 2 -4 6t-12.5 27.5t-32 72t-62 138.5t-103 228t-152.5 343q-4 8 -12.5 6t-10.5 -10l-127 -784q-2 -8 -9 -15.5t-18 -7.5h-186q-10 0 -20 12q-8 8 -8 17q0 4 1 8z" />
<glyph unicode="N" horiz-adv-x="1566" d="M197 29v1398q0 10 9 18.5t19 8.5h37q31 0 53 -24l818 -887q4 -8 12 -4q6 2 6 10l2 856q0 10 8 19.5t21 9.5h192q10 0 19.5 -9.5t9.5 -19.5v-1399q0 -10 -9.5 -18t-19.5 -8h-33q-33 0 -57 24l-819 903q-2 4 -12 4q-8 -4 -9 -12l-2 -870q0 -10 -8 -19.5t-20 -9.5h-189 q-10 0 -19 9t-9 20z" />
<glyph unicode="O" horiz-adv-x="1628" d="M90 711q0 154 57.5 289t156.5 234t233.5 157.5t287.5 58.5q176 0 328 -76q31 -16 16 -51q-4 -6 -15 -28.5t-25.5 -48t-28 -48t-17.5 -29.5q-8 -16 -26.5 -17t-36.5 7q-92 41 -195 41q-100 0 -188 -39t-154.5 -105.5t-104.5 -155.5t-38 -189t38 -188.5t104.5 -155 t154.5 -104.5t188 -38t189.5 38t155 104.5t104.5 154.5t39 189q0 39 -8.5 81t-20.5 80.5t-28.5 71.5t-32.5 51q-10 10 -12.5 21.5t1.5 19.5t11 17q31 27 53 49q20 18 38.5 36.5t24.5 22.5q10 10 24.5 21.5t37.5 -6.5q29 -25 57.5 -76t52 -115.5t38 -136.5t14.5 -137 q0 -154 -57.5 -288t-158 -233.5t-234.5 -157t-288 -57.5t-288 57.5t-233 157t-156.5 233.5t-57.5 288z" />
<glyph unicode="P" horiz-adv-x="1153" d="M197 29v1376q0 10 8 19.5t20 9.5h447q92 0 175 -36t145.5 -96.5t98 -142.5t35.5 -174q0 -94 -35.5 -177t-98 -145.5t-144.5 -98.5t-174 -36h-219q-12 0 -13 -12v-487q0 -10 -9 -19.5t-19 -9.5h-189q-12 0 -20 9t-8 20zM442 772q0 -12 13 -12h198q45 0 86 17.5t72 48 t49.5 71.5t18.5 90q0 45 -18.5 84t-49.5 66.5t-72 44t-86 16.5h-198q-12 0 -13 -12v-414z" />
<glyph unicode="Q" horiz-adv-x="1648" d="M90 715q0 154 57.5 289t156.5 234t233.5 157.5t287.5 58.5q154 0 288 -58.5t234.5 -157.5t158 -234.5t57.5 -288.5q0 -123 -38 -232.5t-106 -201.5q-4 -8 2 -15l246 -246q11 -9 11 -18q0 -4 -3 -8q-8 -12 -18 -12h-252q-23 0 -39 8t-25 16l-94 94q-8 6 -14 0 q-90 -57 -191.5 -88.5t-216.5 -31.5q-154 0 -288 57t-233 156.5t-156.5 233.5t-57.5 288zM340 715q0 -100 38 -188.5t104.5 -155t154.5 -104.5t188 -38q113 0 219 52q10 10 3 18q-35 35 -69 68.5t-60.5 60.5t-43.5 44l-16 17q-6 14 2 23.5t19 9.5h258q20 0 29.5 -7t17.5 -15 q2 -2 18.5 -17.5t20.5 -19.5t9 -4t9 6q35 55 53.5 118.5t18.5 131.5q0 100 -39 189t-104.5 155.5t-154.5 105.5t-190 39q-100 0 -188 -39t-154.5 -105.5t-104.5 -155.5t-38 -189z" />
<glyph unicode="R" horiz-adv-x="1318" d="M268 29v1376q0 10 8.5 19.5t20.5 9.5h551q92 0 172 -34t140.5 -93.5t95 -139.5t34.5 -170q0 -137 -83 -244.5t-216 -164.5q-12 -4 -6 -17q104 -195 161.5 -302t86.5 -156l37 -68q8 -16 1 -30.5t-28 -14.5h-219q-20 0 -25 14l-34 68q-12 25 -33 64.5t-50.5 98t-68.5 136.5 t-90 182q-4 6 -10 6h-187q-12 0 -12 -12v-528q0 -10 -10 -19.5t-21 -9.5h-186q-12 0 -20.5 9t-8.5 20zM516 782q0 -12 12 -12h297q43 0 83 17.5t70 48t47 70.5t17 87q0 43 -17 82t-47 67.5t-70 45t-83 16.5h-297q-12 0 -12 -12v-410z" />
<glyph unicode="S" horiz-adv-x="1079" d="M92 173q-1 3 -1 7q0 8 7 21v-2l74 129q10 16 26.5 19t26.5 -5l4 -2q12 -10 51 -33.5t90.5 -48.5t106.5 -43t103 -18q86 0 142 50t56 122q0 82 -67.5 143t-202.5 115q-72 29 -141.5 67.5t-123 91t-86 121t-32.5 158.5q0 68 27.5 139.5t83.5 127.5q57 58 143 92 q77 31 179 30h24q78 -4 147.5 -21.5t125.5 -41t95 -45t56 -33.5q12 -8 15 -24.5t-5 -28.5q-18 -29 -40 -60t-40 -59q-10 -16 -26.5 -24.5t-30.5 1.5q-6 4 -39 23.5t-78 41t-97.5 39t-95.5 17.5q-47 0 -82.5 -14.5t-60.5 -37t-37 -50t-12 -54.5q0 -78 62.5 -130t187.5 -113 q74 -37 149.5 -77t137 -92.5t101.5 -123t40 -166.5q0 -78 -33 -152.5t-93.5 -132t-146.5 -90.5q-71 -27 -157 -27q-18 0 -37 1q-96 4 -178 26.5t-144.5 50t-103.5 54t-56 41.5h3q-13 12 -17 21z" />
<glyph unicode="T" horiz-adv-x="1300" d="M121 1235v170q0 10 9 19.5t22 9.5h1030q12 0 20 -9.5t8 -19.5v-170q0 -10 -8 -20.5t-20 -10.5h-379q-12 0 -12 -12v-1163q0 -10 -8.5 -19.5t-20.5 -9.5h-189q-10 0 -19 9t-9 20v1163q0 12 -13 12h-380q-12 0 -21.5 10.5t-9.5 20.5z" />
<glyph unicode="U" horiz-adv-x="1439" d="M156 541v864q0 10 8 19.5t18 9.5h195q12 0 20.5 -9.5t8.5 -19.5v-850q0 -68 22.5 -128t64.5 -105.5t99 -71t129 -25.5q70 0 128 25.5t99 71t64.5 104.5t23.5 127v852q0 10 8.5 19.5t20.5 9.5h190q10 0 20.5 -9.5t10.5 -19.5v-864q0 -117 -43 -218.5t-118.5 -178 t-179 -120.5t-224.5 -44t-224.5 44t-179 120.5t-118.5 178t-43 218.5z" />
<glyph unicode="V" horiz-adv-x="1384" d="M6 1395q-4 7 -4 13q0 8 4 14q8 12 25 12h209q20 0 24 -17l400 -882q2 -6 12 -7h16q6 0 10 7l400 882q4 16 24 17h211q15 0 25 -12q6 -7 6 -15q0 -5 -2 -10l-28 -59q-29 -58 -74 -156.5t-102.5 -223t-118 -255t-119 -255t-103.5 -223t-73 -159.5l-27 -60q-8 -16 -29 -16 h-20q-18 0 -27 16z" />
<glyph unicode="W" horiz-adv-x="1835" d="M12 1397q-1 6 -1 10q1 9 5 17q8 10 23 10h194q8 0 15.5 -7.5t11.5 -15.5l215 -831q0 -8 10 -9h11q6 0 10 7l371 856q8 16 24 16h37q16 0 25 -14q6 -14 47 -109q18 -41 44.5 -102.5t65.5 -152.5t92.5 -213t122.5 -281q2 -6 13 -7h8q6 0 10 9q53 205 107.5 418.5 t105.5 412.5q8 23 27 23h192q16 0 24 -10q5 -7 4 -17q0 -5 -1 -10l-152.5 -579.5t-104.5 -393.5t-64.5 -242t-34 -127t-13.5 -47t0 -2q-4 -10 -12 -15t-17 -5h-57q-18 0 -24 12q-8 14 -54 119q-18 43 -49 111.5t-74 167t-102 231.5t-135 307q-4 6 -10 6h-11q-10 0 -12 -6 l-403 -932q-4 -6 -9.5 -11t-19.5 -5h-57q-23 0 -25 16q-6 18 -45 172q-18 66 -45 166t-66 247.5t-93 346.5t-124 463z" />
<glyph unicode="X" horiz-adv-x="1349" d="M63 41l431 684q6 10 0 20l-414 648q-6 14 1 27.5t28 13.5h239q8 0 14.5 -5.5t10.5 -9.5l264 -438q4 -6 10 -6t10 6l265 430q4 8 12 15.5t18 7.5h242q16 0 24.5 -13.5t2.5 -27.5l-416 -648q-6 -10 0 -20l430 -684v2q6 -9 6 -17q0 -6 -4 -12q-8 -14 -29 -14h-223 q-10 0 -20.5 7t-14.5 16l-288 464q-4 6 -10.5 6.5t-10.5 -6.5l-297 -473q-4 -4 -10 -9t-17 -5h-225q-18 0 -26 14q-5 8 -5 15q0 6 2 12z" />
<glyph unicode="Y" horiz-adv-x="1251" d="M6 1391q-3 6 -3 13q0 8 4 16q7 14 24 14h213q8 0 14 -5.5t10 -9.5l330 -477q12 -12 20 0l330 477q4 4 11.5 9.5t15.5 5.5h213q16 0 24 -14q3 -8 3 -15t-3 -14l-481 -693q-2 0 -2 -6v-663q0 -10 -9 -19.5t-20 -9.5h-188q-12 0 -20.5 9t-8.5 20v661q0 6 -2 6z" />
<glyph unicode="Z" horiz-adv-x="1241" d="M41 37q0 11 8 24q12 16 86 142q31 51 80 132t120 199.5t166 277.5t222 368q4 4 1 11t-11 7h-631q-10 0 -19.5 9.5t-9.5 21.5v176q0 10 9.5 19.5t19.5 9.5h993q17 0 31 -14q7 -7 7 -18q0 -10 -7 -24l-28 -48q-29 -48 -76.5 -127t-106.5 -180t-121 -206l-332 -561 q-4 -4 0 -10t11 -6l600 -4q12 0 20 -9.5t8 -21.5v-176q0 -10 -8 -19.5t-20 -9.5h-969q-6 0 -16.5 3t-17.5 10q-9 10 -9 24z" />
<glyph unicode="[" horiz-adv-x="903" d="M143 -600v2019q0 12 9.5 21.5t21.5 9.5h473q12 0 21.5 -9t9.5 -22v-129q0 -12 -9.5 -21t-21.5 -9h-282v-1700h282q12 0 21.5 -9.5t9.5 -19.5v-131q0 -12 -9.5 -21.5t-21.5 -9.5h-473q-12 0 -21.5 9.5t-9.5 21.5z" />
<glyph unicode="\" horiz-adv-x="821" d="M47 1409q-4 16 4 28.5t25 12.5h160q20 0 26 -20l412 -1391q4 -16 -4 -27.5t-23 -11.5h-162q-20 0 -28 18z" />
<glyph unicode="]" horiz-adv-x="770" d="M47 -217q0 12 9.5 20.5t19.5 8.5h282v1699h-282q-10 0 -19.5 9.5t-9.5 21.5v129q0 12 9.5 21.5t19.5 9.5h475q10 0 19.5 -9.5t9.5 -21.5v-2019q0 -10 -9.5 -20.5t-19.5 -10.5h-475q-10 0 -19.5 10.5t-9.5 20.5v131z" />
<glyph unicode="^" horiz-adv-x="1116" d="M78 852q0 2 1 2t1 2l434 610h2q8 16 27 17h10q16 0 29 -17q100 -152 209.5 -306t214.5 -304q0 -2 1 -2t1 -2q4 -12 -2.5 -25.5t-22.5 -13.5h-145q-6 0 -13.5 5t-11.5 9l-260 355q-4 4 -8 4q-6 0 -10 -4q-59 -86 -130 -179.5t-131 -175.5q-4 -4 -11 -9t-13 -5h-146 q-16 0 -23 13.5t-3 25.5z" />
<glyph unicode="_" horiz-adv-x="925" d="M45 -72q0 29 29 29h774q29 0 29 -29v-82q0 -27 -29 -26h-774q-29 0 -29 26v82z" />
<glyph unicode="`" horiz-adv-x="671" d="M108.5 1285q-4.5 11 6.5 28l59 106q6 10 17.5 9t23.5 -7l344 -202q16 -12 10 -27l-41 -76q-10 -20 -36 -6l-369 162v-4q-10 6 -14.5 17z" />
<glyph unicode="a" horiz-adv-x="1159" d="M41 514q6 100 57 201q45 86 123 147.5t170 89.5q67 20 136 19q27 -1 53 -3q96 -10 178 -67q14 -16 27.5 -12t13.5 26q0 20 15 37t36 17h147q23 0 38.5 -16.5t15.5 -37.5v-864q0 -23 -15.5 -37t-38.5 -14h-135q-23 0 -38 14.5t-15 36.5v197v72.5t1 65.5t1 48.5v20.5 q0 94 -37 156.5t-104 99.5q-48 27 -102 32q-14 1 -28 1q-39 0 -75 -10q-49 -14 -91 -46.5t-69 -79.5q-32 -55 -32 -115q1 -17 3 -33q12 -78 56 -141q46 -63 118 -95q41 -18 86 -18q34 0 70 11q20 6 34.5 -3t25.5 -26l55 -151q6 -16 -14 -25q-86 -29 -168 -29q-23 1 -47 3 q-104 10 -188.5 55t-147.5 119q-62 74 -92 164q-25 75 -24 156q0 17 1 34z" />
<glyph unicode="b" horiz-adv-x="1269" d="M238 49v1335q0 20 14 35t35 15h139q23 0 37 -14.5t14 -35.5v-462q0 -14 7.5 -15.5t11.5 2.5q35 20 74.5 37t86.5 23q43 7 84 7q55 0 107 -12q92 -22 165.5 -74t125 -133.5t71.5 -183.5q10 -49 9 -96q0 -39 -6 -78q-15 -84 -55 -155.5t-101.5 -128t-138 -89t-163.5 -38.5 q-15 -1 -31 -1q-72 0 -146 23q-10 4 -14.5 14.5t-0.5 20.5l62 154q14 35 49 24q37 -13 73 -13q28 0 55 8q62 18 109 63t72 109q18 47 18 96q0 18 -2 36q-8 55 -38.5 99.5t-74.5 74.5q-44 32 -98 46q-34 9 -67 9q-18 0 -37 -3q-98 -14 -152.5 -78t-54.5 -142v-479 q0 -20 -14 -34.5t-37 -14.5h-139q-20 0 -34.5 14.5t-14.5 34.5z" />
<glyph unicode="c" horiz-adv-x="817" d="M80 479v2v2q0 102 38 192.5t101.5 157t147.5 105.5t174 39q115 0 225 -51q10 -8 20 -18q5 -5 5 -13q0 -6 -3 -14l-73 -136q-10 -16 -27.5 -23t-34.5 3q-49 20 -112 20q-49 0 -92 -20t-75 -56t-50.5 -84t-18.5 -104q0 -55 18.5 -104t50.5 -84t75 -55.5t92 -20.5 q63 0 112 21q16 10 34 2.5t28 -23.5l69 -125q8 -10 8 -20q0 -6 -3 -12q-7 -16 -23 -23q-43 -20 -97.5 -35.5t-127.5 -15.5q-90 0 -174 38.5t-147.5 105.5t-101.5 157t-38 192z" />
<glyph unicode="d" horiz-adv-x="1269" d="M78 563q14 100 67.5 182t130 137.5t172.5 79.5q57 14 115 13q40 0 82 -6q53 -8 96 -27.5t86 -42.5v485q0 20 13.5 35t31.5 15h142q23 0 38 -14.5t15 -35.5v-1335q0 -20 -15.5 -34.5t-37.5 -14.5h-142q-18 0 -31.5 14.5t-13.5 34.5v479q0 39 -17 75t-47 64.5t-70 48 t-87 25.5q-21 3 -42 3q-34 0 -66 -8q-52 -13 -92.5 -41.5t-68.5 -72.5t-36 -100q-3 -21 -3 -42q0 -31 7 -62q12 -51 42 -93t74 -71t97 -37q29 -4 55.5 -4t53.5 10q18 8 35.5 -3t23.5 -32l47 -139q6 -20 0 -27.5t-12 -9.5q-57 -14 -117 -22q-27 -4 -54 -4q-33 0 -67 6 q-102 16 -184 69.5t-137.5 130t-78.5 172.5q-13 54 -13 110q0 44 8 89z" />
<glyph unicode="e" horiz-adv-x="1064" d="M57 477q0 102 38 192.5t103.5 157t154 105.5t186.5 39t187 -36t154.5 -104.5t101.5 -170.5q32 -92 32 -211v-27q0 -20 -6.5 -28.5t-26.5 -8.5q-176 -2 -319 -2h-367q-2 0 -4 -2v-2q2 -10 15 -39t42 -60.5t76 -59t119 -36.5q30 -4 56 -4q28 0 54 4q49 8 87 23.5t66 37 t46 42.5q8 8 18 2l111 -94q8 -8 8 -15q0 -8 -4 -12q-16 -18 -50 -51t-88 -63t-130 -52q-70 -20 -157 -20h-17q-98 2 -187.5 41.5t-155 106.5t-104.5 156t-39 191zM305 584q2 -2 4 -2h479q7 0 7 2q2 2 2 6q-10 25 -27.5 56.5t-47.5 59t-74 47t-105 19.5q-63 0 -107.5 -23.5 t-72 -54t-41 -61.5t-17.5 -43v-6z" />
<glyph unicode="f" horiz-adv-x="804" d="M33 797v116q0 23 14 36.5t35 13.5h86v32q2 82 31.5 159t87 138.5t139.5 101.5t190 50q30 3 61 3q47 0 94 -7q77 -13 151 -54q8 -4 8 -13q0 -5 -2 -11l-70 -121q-10 -16 -27.5 -22.5t-33.5 0.5q-27 10 -61 18t-64 8q-72 0 -123 -21.5t-83 -59.5t-46 -90q-12 -46 -12 -96 v-15h237q23 0 37 -13.5t14 -36.5v-116q0 -20 -14 -34.5t-37 -14.5h-237v-699q0 -23 -14.5 -36t-35.5 -13h-139q-23 0 -37 13.5t-14 35.5v699h-86q-20 0 -34.5 14t-14.5 35z" />
<glyph unicode="g" horiz-adv-x="1157" d="M58 515q5 99 57 202q43 88 120.5 150.5t168.5 90.5q66 19 133 19q27 0 54 -3q95 -11 175 -73q10 -14 25.5 -11t15.5 25q0 20 15.5 37t37.5 17h137q20 0 25.5 -16.5t5.5 -37.5v-993q-2 -88 -31.5 -169t-88 -143.5t-146.5 -100t-207 -37.5q-154 0 -259.5 68.5t-160.5 174.5 q-4 4 -3 11.5t11 11.5l19 6q14 4 45 14.5t90 32.5q20 6 33 -8q33 -37 86 -69.5t147 -32.5q72 0 121 24.5t79 63t42 87t12 95.5q0 135 2 246q0 47 1 92t2 82t1 59.5v26.5q0 104 -56 177t-136 100q-39 13 -80 13q-43 0 -88 -15q-88 -27 -152 -124q-35 -62 -35 -126 q0 -14 2 -28q9 -79 55 -139.5t121 -88.5q39 -14 82 -14q38 0 78 11q16 4 34 -5t24 -25l53 -148q10 -25 -20 -35q-73 -20 -143 -20q-30 0 -60 4q-99 12 -180.5 57t-143 117t-93.5 160q-28 76 -28 160q0 14 1 27z" />
<glyph unicode="h" horiz-adv-x="1048" d="M102 47v1344q0 18 14.5 31.5t35.5 13.5h139q18 0 32.5 -13.5t14.5 -31.5v-504q2 -18 18.5 -19.5t24.5 11.5q35 47 94.5 72.5t112.5 25.5q84 0 150.5 -29.5t112.5 -84t69.5 -130.5t23.5 -168v-518q0 -47 -51 -47h-137q-23 0 -37 12.5t-14 34.5v524q0 25 -8.5 54.5 t-28 55.5t-52 43t-81.5 17q-80 0 -131.5 -56t-51.5 -148v-490q0 -23 -15 -35t-38 -12h-147q-20 0 -35 12.5t-15 34.5z" />
<glyph unicode="i" horiz-adv-x="520" d="M150 49v864q0 23 14 39.5t33 16.5h141q23 0 37 -16.5t14 -39.5v-864q0 -20 -14.5 -34.5t-36.5 -14.5h-141q-18 0 -32.5 14.5t-14.5 34.5zM150 1126v144q0 23 14 37t33 14h141q51 0 51 -51v-144q0 -18 -14.5 -32.5t-36.5 -14.5h-141q-18 0 -32.5 14.5t-14.5 32.5z" />
<glyph unicode="j" horiz-adv-x="868" d="M-272 -281q-2 3 -2 7q0 9 14 16l156 51q18 8 28 -6q33 -39 87.5 -70.5t146.5 -31.5q72 0 120 24.5t76.5 62.5t40 86t11.5 97v965q4 18 17 30.5t32 12.5h147q20 0 34.5 -14.5t14.5 -35.5v-493v-498q-2 -86 -35.5 -167t-97 -143.5t-156 -100t-212.5 -37.5 q-154 0 -259.5 68.5t-162.5 176.5zM406 1128v144q0 20 14 34.5t37 14.5h139q20 0 34.5 -14.5t14.5 -34.5v-144q0 -20 -14.5 -34.5t-34.5 -14.5h-139q-23 0 -37 14.5t-14 34.5z" />
<glyph unicode="k" horiz-adv-x="1150" d="M225 29v1390q0 12 9.5 21.5t21.5 9.5h178q10 0 19.5 -9t9.5 -22v-848l383 373q10 8 20.5 15.5t24.5 7.5h192q15 1 21 -15q2 -6 3 -13q0 -9 -5 -17l-383 -373q-12 -12 -2 -27q49 -61 102 -128.5t102.5 -132t92.5 -121t73 -97.5q8 -14 3 -28.5t-23 -14.5h-215q-20 0 -29 12 l-360 488v-471q0 -10 -9.5 -19.5t-19.5 -9.5h-178q-12 0 -21.5 9t-9.5 20z" />
<glyph unicode="l" horiz-adv-x="507" d="M150 49v1331q0 23 14 39.5t33 16.5h141q23 0 37 -16.5t14 -39.5v-1331q0 -20 -14.5 -34.5t-36.5 -14.5h-141q-18 0 -32.5 14.5t-14.5 34.5z" />
<glyph unicode="m" horiz-adv-x="1755" d="M180 49v850q0 18 14.5 31.5t34.5 13.5h127q23 0 36.5 -13t13.5 -32v-12q0 -8 5 -13.5t9 -5.5q14 -4 17 -1t7 12q82 98 185 98q94 0 166.5 -42t117.5 -108q20 -33 43 -2v2q49 55 84 78q41 35 91.5 50.5t91.5 15.5q82 0 147.5 -30t112.5 -84t72.5 -129t25.5 -165v-514 q0 -20 -14.5 -34.5t-36.5 -14.5h-137q-23 0 -37.5 14.5t-14.5 34.5v522q0 25 -8 54.5t-27.5 54.5t-52 42t-84.5 17q-78 0 -133 -53t-55 -156v-481v-6q0 -18 -13.5 -30.5t-31.5 -12.5h-143q-18 0 -31.5 14.5t-13.5 34.5v522q0 25 -8.5 54.5t-28 55.5t-53 43t-85.5 17 q-31 0 -58.5 -15t-50 -42t-35.5 -64.5t-13 -82.5v-488q0 -20 -14.5 -34.5t-32.5 -14.5h-140q-20 0 -34.5 14.5t-14.5 34.5z" />
<glyph unicode="n" horiz-adv-x="1175" d="M199 49v850q0 18 15 31.5t38 13.5h125q23 0 36 -13t13 -32v-12q0 -8 7 -13.5t9 -5.5q18 -4 27 11q35 47 94.5 72.5t116.5 25.5q82 0 146.5 -29.5t110.5 -85t70.5 -131.5t24.5 -168v-514q0 -20 -13 -34.5t-36 -14.5h-139q-23 0 -37 14.5t-14 34.5v522q0 25 -8.5 54.5 t-27 55.5t-50 43t-80.5 17q-86 0 -136.5 -56t-50.5 -148v-488q0 -20 -15 -34.5t-38 -14.5h-135q-23 0 -38 14.5t-15 34.5z" />
<glyph unicode="o" horiz-adv-x="1103" d="M80 479q0 141 64.5 252t166 173.5t226.5 68.5h21q114 0 224 -60q20 -10 11 -26l-78 -142q-10 -16 -27.5 -23t-34.5 3q-49 20 -112 20q-51 0 -94.5 -20t-75 -56t-49 -85t-17.5 -105q0 -115 66.5 -189.5t169.5 -74.5q57 0 107 19.5t87 55.5t58.5 84t21.5 105q0 37 -11 73 t-28 64q-5 12 -5 23q0 21 20 37l122 110q11 10 19 2q51 -66 79.5 -144.5t28.5 -164.5q0 -102 -38.5 -192t-106.5 -157t-159 -105.5t-195 -38.5q-90 0 -174 38.5t-147.5 105.5t-101.5 157t-38 192z" />
<glyph unicode="p" horiz-adv-x="1181" d="M117 -463v1383q0 20 15 34.5t38 14.5h141q18 0 31.5 -14.5t13.5 -34.5v-480q0 -39 17.5 -74.5t47.5 -64.5t69.5 -48.5t87.5 -25.5q20 -3 41 -3q33 0 66 8q52 14 93 42.5t68.5 72.5t36.5 99q3 21 3 41q0 32 -8 63q-12 52 -41.5 94t-73.5 70.5t-97 37.5q-29 4 -55.5 4 t-53.5 -11q-18 -8 -35.5 3.5t-23.5 31.5l-47 140q-6 20 0 27t12 9q57 14 117 22q28 4 56 4q32 0 64 -5q100 -16 183.5 -69.5t138.5 -130.5t78 -173q14 -54 14 -111q0 -43 -8 -87q-16 -100 -68.5 -182.5t-129.5 -137.5t-173 -78q-57 -14 -116 -14q-39 0 -80 6 q-53 8 -96.5 27.5t-86.5 42.5v-533q0 -20 -13 -34.5t-32 -14.5h-141q-23 0 -38 14.5t-15 34.5z" />
<glyph unicode="q" horiz-adv-x="1306" d="M164 406q-8 44 -8 87q0 57 14 111q23 96 78 173t137 130.5t184 69.5q33 6 66 6q27 0 54 -4q61 -8 118 -23q6 -2 12 -9t0 -27l-47 -140q-6 -20 -23.5 -31.5t-35.5 -3.5q-27 10 -53.5 10.5t-55.5 -3.5q-53 -8 -97 -37t-74 -71t-42 -93q-7 -31 -7 -62q0 -21 3 -43 q8 -55 36 -99t68.5 -72.5t92.5 -42.5q33 -8 67 -8q21 0 41 3q47 6 87 25.5t70 48.5t47 64.5t17 74.5v480q0 20 13.5 34.5t31.5 14.5h142q23 0 38 -14.5t15 -34.5v-1383q0 -20 -15.5 -34.5t-37.5 -14.5h-142q-18 0 -31.5 14.5t-13.5 34.5v533q-43 -23 -86 -42.5t-96 -27.5 q-41 -6 -82 -6q-59 0 -115 14q-96 23 -172.5 78t-130 137.5t-67.5 182.5z" />
<glyph unicode="r" horiz-adv-x="763" d="M184 29v907q0 12 9.5 20.5t19.5 8.5h102q27 0 29 -21l4 -37q2 -14 3 -27.5t1 -15.5q4 -18 17 -6q12 18 33.5 41t51 42.5t65.5 31.5t79 12q27 0 56.5 -4t53.5 -13q22 -10 36 -23q8 -8 9 -18q0 -6 -3 -12l-76 -135q-12 -20 -49 -8q-27 9 -51 9q-21 0 -40 -7 q-40 -14 -67 -45t-40 -72t-13 -79v-549q0 -29 -39 -29h-162q-10 0 -19.5 9t-9.5 20z" />
<glyph unicode="s" horiz-adv-x="937" d="M63 254q-5 9 -5 18q0 14 12 27q12 18 39 18h145q25 0 41 -18q35 -51 82 -69.5t92 -18.5q72 0 116 20.5t44 59.5q0 20 -8.5 35.5t-30 28t-60 21.5t-98.5 19q-51 8 -114.5 23.5t-119 46.5t-92 81t-36.5 128q0 55 24.5 109.5t71.5 97.5t115.5 69.5t158.5 25.5 q141 0 241.5 -62t145.5 -169q6 -25 -8 -43q-4 -10 -16 -16t-25 -6h-147q-12 0 -23.5 6t-21.5 16q-16 25 -57.5 40.5t-88.5 17.5h-19q-29 0 -47 -4q-24 -6 -37 -18.5t-17.5 -28t-4.5 -27.5q0 -35 30 -49.5t120 -32.5q86 -14 159.5 -32.5t128 -51.5t85 -84t30.5 -127 q0 -68 -29.5 -126t-84 -99t-130 -64.5t-167.5 -23.5q-68 0 -130.5 17.5t-114.5 51t-90 83t-59 110.5z" />
<glyph unicode="t" horiz-adv-x="798" d="M23 782v129q0 23 14 37.5t31 14.5h116q23 0 23 22v283q0 20 14.5 34.5t32.5 14.5h137q25 0 38 -14.5t13 -34.5v-283q0 -23 25 -22h227q20 0 34.5 -14.5t14.5 -37.5v-129q0 -23 -14 -37t-35 -14h-225q-8 0 -16.5 -6t-8.5 -16l2 -422q0 -61 29 -81q19 -13 41 -13q12 0 25 4 q43 10 76.5 26.5t54.5 26.5q20 10 38.5 8t22.5 -18l47 -131q2 -5 2 -9t-2 -8q-4 -6 -14 -12q-4 -2 -27.5 -17.5t-63.5 -32.5q-39 -16 -95 -29q-48 -11 -107 -11h-18q-121 4 -184.5 65.5t-63.5 188.5v465q0 23 -23 22h-116q-16 0 -30.5 14.5t-14.5 36.5z" />
<glyph unicode="u" horiz-adv-x="1173" d="M164 414v499q0 23 14.5 39.5t36.5 16.5h137q23 0 37 -16.5t14 -39.5v-510q0 -25 8.5 -57.5t28 -63t52 -52t81.5 -21.5q41 0 76 18.5t59.5 49t39 71.5t14.5 88v477q0 23 13 39.5t36 16.5h139q20 0 34.5 -16.5t14.5 -39.5v-862q0 -23 -14 -37t-35 -14h-129q-23 0 -38 14.5 t-15 36.5v35q0 16 -8 16q-12 4 -17.5 1t-13.5 -11q-18 -25 -42.5 -43t-53.5 -32.5t-58.5 -21.5t-54.5 -7q-166 0 -261 110.5t-95 315.5z" />
<glyph unicode="v" horiz-adv-x="1038" d="M47 915q-2 6 -2 12q0 11 6 23q10 19 33 19h143q39 0 56 -39l225 -535q10 -23 22 0l222 533q6 18 23.5 29.5t39.5 11.5h160q17 -1 27 -19q4 -9 5 -17q0 -10 -6 -20l-376 -882q-10 -31 -45 -31h-119q-16 0 -31.5 7t-19.5 24z" />
<glyph unicode="w" horiz-adv-x="1849" d="M77 954q9 16 29 17h160q18 0 34.5 -6.5t27.5 -26.5v-2l227 -535v-2q4 -10 10 -9t10 9l226 537v2q6 10 14 21.5t21 11.5h172q18 0 25 -6.5t16 -22.5l233 -545q4 -8 8 -7t8 9l224 531v2q8 20 25.5 28.5t37.5 10.5h2h152q19 -1 31 -17q7 -9 6 -19q0 -8 -4 -17v-3l-369 -882 v-2q-6 -16 -19.5 -23.5t-27.5 -7.5h-131q-35 0 -49 31l-232 549q-6 14 -22 14q-14 0 -21 -14l-227 -547v-2q-8 -31 -45 -31h-131q-20 0 -29.5 7t-19.5 24v2l-371 887v2q-5 8 -5 17q0 7 4 15z" />
<glyph unicode="x" horiz-adv-x="1024" d="M12 12q-2 5 -1 11q0 10 5 20l332 471l-295 408q-10 16 -3 30.5t26 14.5h180q20 0 35.5 -4.5t25.5 -20.5l181 -256l198 266q10 8 24.5 16.5t29.5 8.5h192q18 0 22.5 -14.5t-6.5 -30.5l-309 -416q33 -45 78 -106.5t92 -127t93 -127t79 -106.5q4 -11 4 -21q0 -6 -1 -10 q-3 -14 -19 -14h-197q-29 0 -49 29l-229 307l-238 -330q-4 -4 -12 -8t-12 -4h-205q-17 0 -21 14z" />
<glyph unicode="y" horiz-adv-x="1198" d="M61 -324q-4 6 -4 10q0 6 9 9l20 8q16 4 49 15.5t92 31.5q10 4 16.5 4t12.5 -10q33 -41 87 -73.5t146 -32.5q72 0 121 24.5t80 63t44.5 88t13.5 98.5v180q-4 12 -16.5 12t-22.5 -12q-37 -47 -97.5 -69.5t-113.5 -22.5q-82 0 -147.5 29.5t-111.5 84t-71 131.5t-25 169v499 q0 23 15.5 39.5t36.5 16.5h139q18 0 33.5 -16.5t15.5 -39.5v-510q0 -25 8 -54.5t27.5 -56t52.5 -45t84 -18.5q80 0 132 57.5t52 149.5v477q0 23 13.5 39.5t35.5 16.5h146q23 0 37 -16.5t14 -39.5v-1036q-2 -86 -36 -167t-97.5 -143.5t-156.5 -101t-214 -38.5 q-154 0 -257 70.5t-163 178.5z" />
<glyph unicode="z" horiz-adv-x="903" d="M78 29v14q0 4 4 12l410 643q6 12 0 25q-8 12 -21 12l-336 2q-10 0 -18 9.5t-8 19.5v172q0 29 26 29h719q16 1 26 -13q5 -7 6 -15q0 -7 -5 -15v-2l-414 -652q-6 -10 0 -24q6 -10 20 -10l324 2q31 -4 31 -29v-180q0 -10 -8.5 -19.5t-22.5 -9.5h-705q-10 0 -19 9t-9 20z" />
<glyph unicode="{" horiz-adv-x="884" d="M45 602v105q0 10 6 15t12 9h5q10 2 40.5 14.5t62.5 32t56.5 47t24.5 62.5v266q0 172 50 280.5t126 171t165 87t169 28.5q29 2 33 -24l8 -133q2 -12 -5 -18.5t-16 -8.5q-127 -29 -208.5 -123t-81.5 -260v-221q0 -59 -26 -105.5t-59.5 -79t-66.5 -52t-47 -25.5q-6 0 -6 -11 v-8q0 -10 8 -10q23 -10 56.5 -28.5t64 -49.5t53.5 -74t23 -100v-225q0 -164 83.5 -258t206.5 -121q8 -2 15.5 -9t5.5 -20l-8 -133q-2 -10 -10.5 -18t-22.5 -6q-80 2 -169 26.5t-165 87t-126 171t-50 280.5l-31 258q0 39 -16.5 66.5t-40 46t-50 27.5t-46.5 13q-23 4 -23 27z " />
<glyph unicode="|" horiz-adv-x="391" d="M145 -350v2148q0 12 9.5 20.5t19.5 8.5h27q29 0 28 -29v-2148q0 -10 -10 -19.5t-20 -9.5h-25q-10 0 -19.5 9.5t-9.5 19.5z" />
<glyph unicode="}" horiz-adv-x="847" d="M47 -244q-2 12 5 19.5t16 9.5q123 27 206.5 121t83.5 258v225q0 57 22.5 100t53.5 74t64.5 49.5t56.5 28.5q8 0 8 10v8q0 10 -6 11q-14 6 -47 25.5t-66.5 52t-59.5 78.5t-26 106v221q0 166 -81.5 260t-208.5 123q-8 2 -15.5 8t-5.5 19l8 133q4 27 33 24q80 -4 169 -28.5 t165 -87t126 -171t50 -280.5v-266q0 -35 24.5 -62.5t56.5 -47t62.5 -32t40.5 -14.5h4q6 -4 12.5 -9t6.5 -15v-105q0 -23 -23 -27q-20 -4 -46.5 -13t-50 -27.5t-40 -46t-16.5 -66.5l-31 -258q0 -172 -50 -280.5t-126 -171t-165 -87t-169 -26.5q-14 -2 -22.5 6t-10.5 18z" />
<glyph unicode="~" horiz-adv-x="1171" d="M66 535q43 55 94 100q43 39 98 70.5t115 31.5q55 0 100 -23.5t88 -53t86 -53t92 -23.5q29 0 54.5 11t46 28.5t37 38t26.5 36.5q10 8 22.5 9.5t22.5 -7.5h-2l88 -94q8 -6 9 -16t-5 -19q-43 -57 -92 -100q-41 -39 -94 -69.5t-113 -30.5q-59 0 -106 22.5t-90 50t-85 51 t-87 23.5q-29 0 -53.5 -11t-46 -27.5t-38 -36t-26.5 -35.5q-8 -10 -20.5 -12.5t-20.5 7.5l-96 95q-18 18 -4 37z" />
<glyph unicode="&#xa1;" horiz-adv-x="636" d="M156 1309q0 -33 13 -62.5t34.5 -52.5t50.5 -36t61 -13q33 0 64 13t52.5 36t34.5 52.5t13 62.5q0 66 -48 113.5t-116 47.5q-33 0 -61.5 -13t-50 -34.5t-34.5 -51t-13 -62.5zM176 31q0 -12 9.5 -21.5t21.5 -9.5h225q12 0 21.5 9t9.5 22v233l-82 590q-2 10 -11.5 17.5 t-19.5 7.5h-61q-12 0 -21.5 -7.5t-9.5 -17.5l-82 -586v-237z" />
<glyph unicode="&#xa2;" horiz-adv-x="817" d="M80 479v2v2q0 102 38 192.5t101.5 157t147.5 105.5t174 39q115 0 225 -51q10 -8 19.5 -17.5t2.5 -27.5l-73 -136q-10 -16 -27.5 -23t-34.5 3q-49 20 -112 20q-49 0 -92 -20t-75 -56t-50.5 -84t-18.5 -104q0 -55 18.5 -104t50.5 -84t75 -55.5t92 -20.5q63 0 112 21 q16 10 34 2.5t28 -23.5l69 -125q12 -16 5 -31.5t-23 -23.5q-43 -20 -97.5 -35.5t-127.5 -15.5q-90 0 -174 38.5t-147.5 105.5t-101.5 157t-38 192zM455 -289v1452q0 12 9 20.5t19 8.5h27q29 0 29 -29v-1452q0 -10 -10.5 -19t-20.5 -9h-25q-10 0 -19 9t-9 19z" />
<glyph unicode="&#xa3;" horiz-adv-x="1132" d="M90 643v27q0 10 8 20t19 10h131q23 0 23.5 8.5t-1.5 16.5q-2 4 -4 12t-4 19l-4 20q-16 59 -30.5 128t-14.5 134q0 102 34 183.5t93 136.5t138 85t169 30q72 0 128 -16.5t100.5 -40t75 -48.5t48.5 -43q10 -6 10.5 -17.5t-8.5 -21.5l-102 -125q-6 -10 -19.5 -9t-23.5 5 q-33 27 -70 49q-31 18 -66.5 33.5t-70.5 15.5q-39 0 -73.5 -14t-62.5 -40.5t-44 -65.5t-16 -86q0 -53 14 -106.5t31 -106.5v2q8 -29 15 -54.5t15 -54.5q4 -14 9.5 -21.5t23.5 -7.5h330q12 0 20.5 -10t8.5 -20v-29q0 -10 -8.5 -19.5t-20.5 -9.5h-305q-33 0 -31 -24 q6 -53 6 -101q0 -53 -6 -113.5t-23 -121.5q-6 -16 2.5 -26.5t22.5 -10.5h412q10 0 18 -9t8 -22v-153q0 -10 -8 -19.5t-18 -9.5h-717q-10 0 -19.5 9t-9.5 20v39q53 98 73.5 189t20.5 177q0 37 -4 81t-8 65q-6 20 -9 25t-24 5h-155q-10 0 -18.5 10.5t-8.5 20.5z" />
<glyph unicode="&#xa4;" horiz-adv-x="946" d="M94 292.5q0 12.5 8 22.5l127 127q-29 68 -28 119q0 66 28 123l-125 125q-8 8 -8 20.5t8 20.5l84 82q8 8 19.5 8t19.5 -8l125 -127q66 33 121 33q49 0 119 -33l127 127q18 18 41 0h-2l82 -84q18 -23 2 -39l-123 -123q29 -68 29 -129q0 -53 -29 -117l125 -125q18 -23 0 -43 v2l-84 -81q-8 -8 -19.5 -8.5t-17.5 5.5l-127 125q-29 -16 -61.5 -22t-61.5 -6q-68 0 -125 28l-125 -125q-8 -8 -19 -8t-20 8l-82 82q-8 8 -8 20.5zM352 561q0 -49 34 -83t85 -34q53 0 86 34t33 83q0 53 -33 87t-86 34q-51 0 -85 -34t-34 -87z" />
<glyph unicode="&#xa5;" horiz-adv-x="1251" d="M6 1391q-6 14 1 28.5t24 14.5h213q8 0 14 -5.5t10 -9.5l330 -477q12 -12 20 0l330 477q4 4 11.5 9.5t15.5 5.5h213q16 0 23.5 -14.5t0.5 -28.5l-481 -693q-2 0 -2 -6v-663q0 -10 -9 -19.5t-20 -9.5h-188q-12 0 -20.5 9t-8.5 20v661q0 6 -2 6zM254 276v119q0 10 8 19.5 t21 9.5h684q14 0 22 -9t8 -20v-119q0 -12 -8 -21t-22 -9h-684q-12 0 -20.5 9t-8.5 21zM254 760v117q0 12 8 21t21 9h684q14 0 22 -9t8 -21v-117q0 -10 -8 -19.5t-22 -9.5h-684q-12 0 -20.5 9.5t-8.5 19.5z" />
<glyph unicode="&#xa6;" horiz-adv-x="602" d="M283 92q0 12 10 20.5t20 8.5h27q10 0 19.5 -8.5t9.5 -20.5v-694q0 -12 -10.5 -20.5t-20.5 -8.5h-25q-10 0 -20 8.5t-10 20.5v694zM283 850v696q0 12 10 20.5t20 8.5h27q10 0 19.5 -8t9.5 -21v-696q0 -10 -10.5 -18.5t-20.5 -8.5h-25q-10 0 -20 8.5t-10 18.5z" />
<glyph unicode="&#xa7;" horiz-adv-x="1046" d="M78 516q0 49 15.5 92t38 79t51 64.5t53.5 51.5q-23 18 -49.5 48t-51 66.5t-41 83t-16.5 99.5q0 68 24.5 133t77.5 118.5t137 86t201 32.5q76 0 141.5 -16t115.5 -37.5t84 -43t48 -32.5q14 -8 20.5 -23t-1.5 -30l-86 -125q-18 -29 -56 -8q-12 8 -40.5 25.5t-67.5 36 t-83 32t-85 13.5q-96 0 -143.5 -46.5t-47.5 -97.5q0 -72 59.5 -126t184.5 -105q74 -31 148.5 -68t134 -88t97.5 -118.5t38 -155.5q0 -49 -16.5 -93.5t-40 -81t-51 -67.5t-50.5 -51q20 -18 48 -48t52.5 -68t41 -86t16.5 -105q0 -74 -32 -142.5t-90 -121t-142 -84t-189 -31.5 q-94 0 -168.5 19.5t-129 44t-88.5 50t-46 37.5h2q-12 14 -17 26.5t7 31.5l66 112q10 16 25.5 21.5t33.5 -8.5q20 -12 54 -33t74 -40.5t86 -34.5t93 -15q33 0 66.5 9t61.5 28.5t44.5 48t16.5 67.5q0 49 -24 88t-60.5 70t-82.5 55.5t-91 42.5q-70 29 -136.5 68t-119 89 t-84 115.5t-31.5 145.5zM309 537q0 -47 19.5 -81t59.5 -65t99.5 -60.5t139.5 -64.5q25 18 47 45q18 23 33.5 55.5t15.5 79.5q0 45 -24.5 83t-69.5 70t-105.5 58.5t-130.5 49.5q-20 -18 -52 -59t-32 -111z" />
<glyph unicode="&#xa8;" horiz-adv-x="964" d="M109 1751q0 51 35.5 87t86.5 36t87 -36t36 -87q0 -49 -36 -86t-87 -37t-86.5 37t-35.5 86zM629 1751q0 51 34.5 87t86.5 36q51 0 87.5 -36t36.5 -87q0 -49 -36.5 -86t-87.5 -37t-86 37t-35 86z" />
<glyph unicode="&#xa9;" horiz-adv-x="1705" d="M88 725q0 154 58.5 289t160 236.5t236.5 160.5t288 59q154 0 289 -59t236.5 -160.5t161 -236.5t59.5 -289t-59.5 -289t-161 -236.5t-236.5 -159.5t-289 -58t-288.5 58t-236 159.5t-160 236.5t-58.5 289zM231 725q0 -125 47.5 -234.5t128 -190.5t190.5 -128t234 -47 q125 0 235 47t190.5 128t128 190.5t47.5 234.5t-47.5 234.5t-128 190.5t-190.5 128t-235 47t-234.5 -47t-190 -128t-128 -190.5t-47.5 -234.5zM469 721q0 80 29.5 149.5t82 121.5t122 82t147.5 30q61 0 119.5 -18.5t109.5 -57.5q8 -10 7 -23.5t-5 -23.5l-71 -80 q-4 -6 -16.5 -6t-20.5 4q-29 18 -59.5 26.5t-61.5 8.5q-43 0 -81 -16.5t-64.5 -45t-42 -65.5t-15.5 -80q0 -90 57.5 -149.5t145.5 -59.5q33 0 61.5 8.5t57.5 28.5q23 14 37 -2l75 -84q4 -10 5.5 -23.5t-7.5 -21.5h2q-53 -47 -110.5 -66.5t-122.5 -19.5q-78 0 -147.5 29.5 t-122 82t-82 122t-29.5 149.5z" />
<glyph unicode="&#xaa;" horiz-adv-x="663" d="M20.5 1161q-12.5 84 30.5 168q25 49 69 84t95 50.5t105.5 8t103.5 -39.5q6 -8 13 -5t7 15t8.5 22.5t18.5 10.5h86q10 0 18.5 -10.5t8.5 -22.5v-484q0 -10 -8.5 -19t-18.5 -9h-78q-12 0 -21 9t-9 19q0 61 2 111q0 41 1 76t1 39q0 102 -82 143q-57 33 -114.5 13.5 t-90.5 -68.5q-23 -39 -15.5 -84t33 -81t66.5 -53.5t88 -2.5q20 6 29 -15l32 -88q6 -6 -10 -12q-92 -31 -173 -5.5t-132 86t-63.5 144.5z" />
<glyph unicode="&#xab;" horiz-adv-x="989" d="M86 424q0 8 8 20q86 115 131 178.5t68 92.5q25 35 31 41q4 6 9 11t15 5h119q23 0 29 -16.5t-4 -34.5l-136 -270q-14 -27 0 -54l127 -286v-2q8 -16 3 -31t-25 -15h-129q-4 0 -13 5q-6 4 -14 12l-215 319v2q-6 11 -4 23zM506 424q0 8 8 20q86 115 131 177.5t68 91.5 q25 35 30 41q4 6 9.5 12t15.5 6h121q20 0 26.5 -16.5t-4.5 -34.5l-135 -270q-14 -27 0 -54l127 -286v-2q8 -16 3 -31t-23 -15h-131q-4 0 -13 5q-6 4 -14 12l-215 319v2q-6 10 -4 23z" />
<glyph unicode="&#xac;" horiz-adv-x="1257" d="M53 659v117q0 12 9.5 21.5t19.5 9.5h907q12 0 20.5 -9.5t8.5 -21.5v-473q0 -10 -9.5 -19.5t-19.5 -9.5h-117q-12 0 -21 9.5t-9 19.5v328h-760q-10 0 -19.5 9t-9.5 19z" />
<glyph unicode="&#xad;" horiz-adv-x="1032" d="M135 510v119q0 10 8.5 19t20.5 9h684q14 0 22.5 -9t8.5 -19v-119q0 -12 -8.5 -21.5t-22.5 -9.5h-684q-12 0 -20.5 9.5t-8.5 21.5z" />
<glyph unicode="&#xae;" horiz-adv-x="1705" d="M86 727q0 154 58.5 289t160 236.5t236 161t288.5 59.5t289 -59.5t236.5 -161t161 -236.5t59.5 -289t-59.5 -289t-161 -236.5t-236.5 -159.5t-289 -58t-288.5 58t-236 159.5t-160 236.5t-58.5 289zM229 727q0 -125 47.5 -234.5t128 -190.5t190 -128t234.5 -47t235 47 t190.5 128t128 190.5t47.5 234.5t-47.5 234.5t-128 190.5t-190.5 128t-235 47t-234.5 -47t-190 -128t-128 -190.5t-47.5 -234.5zM561 385v688q0 10 8.5 19.5t20.5 9.5h323q47 0 91.5 -16.5t79 -49t56 -79t21.5 -105.5q0 -47 -13 -83t-33.5 -62.5t-46 -45t-50.5 -30.5 q-8 -4 -4 -15l96 -219h2q6 -16 -3 -29.5t-26 -13.5h-112q-4 0 -12.5 7.5t-12.5 17.5h-2l-92 233q-2 8 -10 9h-111q-12 0 -12 -13v-223q0 -12 -8.5 -21.5t-22.5 -9.5h-98q-12 0 -20.5 9.5t-8.5 21.5zM713 766q0 -12 12 -12h166q43 0 69.5 27.5t26.5 68.5q0 43 -26.5 70.5 t-69.5 27.5h-166q-12 0 -12 -12v-170z" />
<glyph unicode="&#xaf;" horiz-adv-x="894" d="M131 1225v71q0 29 29 29h579q29 0 29 -29v-71q0 -27 -29 -27h-579q-29 0 -29 27z" />
<glyph unicode="&#xb0;" horiz-adv-x="651" d="M49 1198q0 55 21.5 105.5t58.5 87t86 58t107 21.5q55 0 105 -21.5t87 -58t58.5 -87t21.5 -105.5q0 -57 -21.5 -107.5t-58.5 -87t-87 -58t-105 -21.5q-57 0 -106.5 21.5t-86.5 58t-58.5 87t-21.5 107.5zM205 1198q0 -47 35 -83t82 -36t79.5 36t32.5 83q0 45 -32.5 79 t-79.5 34t-82 -34t-35 -79z" />
<glyph unicode="&#xb1;" horiz-adv-x="1136" d="M119 127v117q0 10 9 19t22 9h868q10 0 18 -9t8 -19v-117q0 -12 -8 -21.5t-18 -9.5h-868q-12 0 -21.5 9.5t-9.5 21.5zM119 791v116q0 10 9 19.5t22 9.5h335q10 0 11 12v309q0 12 9 20.5t19 8.5h117q10 0 20.5 -8t10.5 -21v-309q0 -12 12 -12h334q10 0 18 -9t8 -20v-116 q0 -12 -8 -21.5t-18 -9.5h-334q-12 0 -12 -12v-254q0 -12 -10.5 -20.5t-20.5 -8.5h-117q-10 0 -19 8t-9 21v254q0 12 -11 12h-335q-12 0 -21.5 9t-9.5 22z" />
<glyph unicode="&#xb2;" horiz-adv-x="548" d="M68 1063v14q0 6 2 8q23 27 53.5 67t64 83t65.5 84t54 72q23 27 36 54.5t13 51.5q0 35 -24.5 62.5t-77.5 27.5q-35 0 -63.5 -19.5t-45.5 -37.5h-2q-8 -8 -16 0l-45 45v2q-6 6 0 16l14 15q13 14 36.5 30.5t56 29.5t73.5 13q98 0 150.5 -53t52.5 -127q0 -41 -17.5 -75.5 t-44.5 -71.5q-25 -35 -61.5 -82t-71.5 -88l-20 -29q-4 -4 -2 -10t10 -6h188q14 0 15 -13v-63q0 -14 -15 -14h-366q-12 0 -12 14z" />
<glyph unicode="&#xb3;" horiz-adv-x="489" d="M20 1126q-8 2 0 17l48 45q10 6 16 0v2q2 -2 12 -10.5t26.5 -17.5t37 -17t43.5 -8q41 0 72.5 25.5t31.5 66.5q0 39 -34.5 67.5t-100.5 28.5h-51q-12 0 -12 14v60q0 14 12 14h51q59 0 90 25.5t31 64.5q0 41 -28.5 65.5t-65.5 24.5q-39 0 -62.5 -15t-36.5 -32q-8 -4 -18 0 l-47 43q-4 4 -3 8.5t5 8.5q20 23 47 41q23 16 54.5 28.5t70.5 12.5q78 0 135 -44.5t57 -121.5q0 -47 -26.5 -82t-57.5 -54q-4 -2 -4 -10q0 -4 4 -8q35 -20 69 -56t34 -89q0 -78 -58.5 -128.5t-152.5 -50.5q-43 0 -75 9.5t-55.5 23t-37.5 26.5t-21 23z" />
<glyph unicode="&#xb4;" horiz-adv-x="602" d="M100 1192q-8 14 11 27l344 202q10 6 21 7.5t18 -9.5q14 -27 30.5 -53.5t30.5 -52.5h-2q8 -16 5 -27.5t-11 -17.5v4l-369 -162q-18 -10 -27.5 -7t-13.5 13h2z" />
<glyph unicode="&#xb5;" horiz-adv-x="1208" d="M197 -481v1396q0 23 14 39.5t37 16.5h137q23 0 37 -16.5t14 -39.5l6 -561q6 -25 17.5 -49t31 -45.5t48 -35t67.5 -13.5q41 0 76 18.5t59.5 49t39 71.5t14.5 88v477q0 23 13 39.5t36 16.5h139q20 0 34.5 -16.5t14.5 -39.5v-862q0 -23 -14 -37t-35 -14h-129q-23 0 -38 14.5 t-15 36.5v35q0 16 -8 16q-12 4 -17.5 1t-13.5 -11q-18 -25 -43 -43t-53.5 -32.5t-58 -21.5t-54.5 -7q-66 0 -111 14v-485q0 -10 -9 -19.5t-19 -9.5h-189q-12 0 -20 9t-8 20z" />
<glyph unicode="&#xb6;" horiz-adv-x="1505" d="M39 1001q0 88 30.5 166t84 136.5t126 93.5t156.5 35l959 -2q10 0 19 -10.5t9 -20.5v-96q0 -12 -9 -20.5t-19 -8.5h-131q-45 0 -45 -41v-1714q0 -12 -8.5 -21.5t-20.5 -9.5h-113q-10 0 -20 9t-10 22v1698q0 18 -8.5 37.5t-34.5 19.5h-222q-23 0 -32 -16.5t-9 -36.5v-1702 q0 -12 -10 -21.5t-20 -9.5h-113q-10 0 -19.5 9t-9.5 22v1052h-104q-86 0 -164 34t-136.5 92.5t-92 136t-33.5 167.5z" />
<glyph unicode="&#xb7;" horiz-adv-x="555" d="M88 526q0 39 14.5 73t39 58.5t56 39t68.5 14.5q76 0 129.5 -53.5t53.5 -131.5q0 -35 -14.5 -66.5t-39 -56t-58.5 -39t-71 -14.5t-68.5 14.5t-56 39t-39 56.5t-14.5 66z" />
<glyph unicode="&#xb8;" horiz-adv-x="514" d="M72 -454.5q2 12.5 10 22.5l55 45q2 2 7.5 -2t9.5 -8q16 -16 35.5 -22.5t35.5 -6.5q37 0 60.5 25.5t23.5 62.5q0 43 -38 75t-124 38q-16 4 -21 14t-5 14v197h117v-129q98 -12 151 -66.5t53 -140.5q0 -43 -16 -82t-45 -67.5t-68 -45t-84 -16.5t-85 20.5t-66 49.5 q-8 10 -6 22.5z" />
<glyph unicode="&#xb9;" horiz-adv-x="356" d="M72 1522v34q0 8 4 11l129 108q2 2 6 2h59q12 0 13 -12v-598q0 -12 -13 -12h-80q-12 0 -12 12v436q0 6 -4 6q-2 2 -8 2h-82q-12 0 -12 11z" />
<glyph unicode="&#xba;" horiz-adv-x="702" d="M104 1366q0 152 66 237t176 85q111 0 175.5 -85t64.5 -237t-64.5 -237t-175.5 -85t-176.5 85t-65.5 237zM217 1366q0 -106 36 -163.5t93 -57.5q55 0 91 57.5t36 163.5q0 104 -36 162.5t-91 58.5q-57 0 -93 -58.5t-36 -162.5z" />
<glyph unicode="&#xbb;" horiz-adv-x="999" d="M92 755.5q6 16.5 27 16.5h121q10 0 17 -8t11 -14l226 -306q8 -12 8 -20q2 -12 -4 -23v-2l-215 -319q-8 -8 -15 -12q-8 -4 -12 -5h-131q-18 0 -23.5 14.5t2.5 31.5v2l127 286q12 27 0 54l-135 270q-10 18 -4 34.5zM512 755.5q6 16.5 29 16.5h118q10 0 17.5 -8t11.5 -14 l225 -306q9 -12 9 -20q2 -12 -4 -23v-2l-216 -319q-8 -8 -14 -12q-8 -4 -12 -5h-129q-20 0 -25.5 14.5t2.5 31.5v2l127 286q12 27 0 54l-135 270q-10 18 -4 34.5z" />
<glyph unicode="&#xbc;" horiz-adv-x="1099" d="M111 1290v35q0 10 4 12l129 107q4 4 6 4h59q12 0 13 -14v-598q0 -12 -13 -13h-80q-12 0 -12 13v436q0 4 -4 8q-2 2 -8 2h-82q-12 0 -12 8zM164 475l637 797q8 12 18 4l68 -43q8 -6 4 -16l-639 -797q-4 -12 -16 -4l-68 43q-12 8 -4 16zM510 469v72q0 2 4 6l330 403h2 q0 4 8 4h51q12 0 13 -12v-391q0 -10 12 -10h67q14 0 15 -13v-57q0 -12 -15 -12h-67q-4 0 -8 -4q-2 -2 -2 -9v-112v-2q-4 -10 -13 -10h-78q-14 0 -14 12v112q0 10 -10 11h-281q-14 0 -14 12zM631 549q2 -6 10 -6h168q10 0 10 10v203q0 6 -6 10q-6 2 -12 -4l-168 -203 q-4 -4 -2 -10z" />
<glyph unicode="&#xbd;" horiz-adv-x="1118" d="M92 1325q0 8 4 12l131 107q4 4 6 4h60q12 0 12 -14v-598q0 -12 -12 -13h-80q-14 0 -14 13v436q0 6 -4 8q-2 2 -9 2h-80q-12 0 -12 8zM166 475l637 797q4 12 16 4l68 -43q12 -8 4 -16l-637 -797q-8 -12 -18 -4l-68 43q-10 8 -2 16zM645 309v17q0 6 2 8q23 27 53.5 66.5 t64.5 82.5t65.5 84t54.5 72q23 27 36 54.5t13 51.5q0 35 -25.5 63t-79.5 28q-35 0 -62.5 -19.5t-43.5 -38.5h-2q-8 -8 -16 0l-46 45v2q-6 6 0 17l13 14q14 14 37.5 30.5t55.5 30t73 13.5q98 0 151 -53.5t53 -126.5q0 -41 -18 -76t-43 -72q-25 -35 -61.5 -82t-71.5 -88 l-21 -29q-4 -4 -2 -10t11 -6h188q14 0 14 -12v-66q0 -12 -14 -12h-367q-12 0 -12 12z" />
<glyph unicode="&#xbe;" horiz-adv-x="1253" d="M86 897q-8 4 0 16l47 45q10 8 19 0v3q2 -2 12 -10.5t26.5 -17.5t37 -17.5t42.5 -8.5q41 0 72 25.5t31 66.5q0 39 -34 68t-99 29h-52q-14 0 -14 14v59q0 14 14 15h52q59 0 89.5 25.5t30.5 64.5q0 41 -28.5 65.5t-65.5 24.5q-39 0 -63.5 -15.5t-34.5 -31.5q-8 -4 -18 0 l-48 43q-8 8 2 16q20 23 48 41q23 16 53.5 28.5t68.5 12.5q80 0 137.5 -44t57.5 -122q0 -47 -26.5 -81.5t-57.5 -53.5q-6 -4 -6 -10t6 -8q35 -20 67.5 -56.5t32.5 -89.5q0 -78 -57 -128t-152 -50q-43 0 -75.5 9.5t-55 22.5t-37 26.5t-22.5 23.5zM250 475l637 797q8 12 18 4 l68 -43q8 -6 4 -16l-639 -797q-4 -12 -16 -4l-68 43q-12 8 -4 16zM596 469v72q0 2 1 3t1 3l332 403q4 4 10 4h51q12 0 13 -12v-391q0 -10 10 -10h69q14 0 15 -13v-57q0 -12 -15 -12h-69q-2 0 -6 -4t-4 -9l2 -112v-2q-4 -10 -13 -10h-78q-14 0 -14 12v112q0 10 -10 11h-283 q-12 0 -12 12zM717 549q2 -6 10 -6h168q10 0 10 10v203q0 6 -6 10q-8 4 -12 -4l-168 -203q-4 -4 -2 -10z" />
<glyph unicode="&#xbf;" horiz-adv-x="970" d="M47 322q0 55 18.5 99t47 81t63.5 66.5t69 54.5q25 18 50.5 34.5t46 40t33 58.5t12.5 90q0 33 33 33h129q23 0 28 -29q12 -66 3 -117t-30.5 -89t-51 -67.5t-58.5 -52.5q-53 -45 -94 -89t-41 -97q0 -61 47 -102t133 -48q74 -4 123 27t78 59l30 25q10 4 19.5 4t15.5 -6 l99 -96q18 -18 4 -33q-45 -53 -107 -94q-53 -35 -129 -64.5t-174 -29.5q-80 0 -152.5 25.5t-127 70.5t-86 108.5t-31.5 137.5zM286 1309q0 66 48.5 113.5t115.5 47.5q66 0 114 -47.5t48 -113.5q0 -33 -13.5 -62.5t-35 -52.5t-51 -36t-62.5 -13t-63.5 13t-52 36t-35 52.5 t-13.5 62.5z" />
<glyph unicode="&#xc0;" d="M94 37q0 -2 3 5t20.5 47t56.5 125t110.5 240.5t182.5 394t272 587.5q8 16 25 16h20q14 0 19.5 -5t9.5 -11l3 -6q3 -7 20.5 -45.5t56.5 -123.5t109.5 -241t180 -394.5t269.5 -586.5q6 -16 -2 -27.5t-25 -11.5h-180q-37 0 -51 35l-12 28q-10 23 -29.5 67t-56.5 130 q-4 6 -11 6h-624q-8 0 -10 -6l-103 -225q-6 -14 -17.5 -24.5t-31.5 -10.5h-180q-16 0 -24.5 10t-0.5 27zM524.5 1695q-4.5 11 6.5 28l59 106q6 10 17.5 9t23.5 -7l344 -202q16 -12 10 -27l-41 -76q-10 -20 -36 -6l-369 162v-4q-10 6 -14.5 17zM554 479q3 -6 11 -6h416 q4 0 9 6t1 10l-207 457q-4 6 -11 6t-11 -6l-207 -457q-4 -4 -1 -10z" />
<glyph unicode="&#xc1;" d="M94 37q0 -2 3 5t20.5 47t56.5 125t110.5 240.5t182.5 394t272 587.5q8 16 25 16h20q14 0 19.5 -5t9.5 -11l3 -6q3 -7 20.5 -45.5t56.5 -123.5t109.5 -241t180 -394.5t269.5 -586.5q6 -16 -2 -27.5t-25 -11.5h-180q-37 0 -51 35l-12 28q-10 23 -29.5 67t-56.5 130 q-4 6 -11 6h-624q-8 0 -10 -6l-103 -225q-6 -14 -17.5 -24.5t-31.5 -10.5h-180q-16 0 -24.5 10t-0.5 27zM526 1602q-8 14 11 27l344 202q10 6 21 7.5t18 -9.5q14 -27 30.5 -53.5t30.5 -52.5h-2q8 -16 5 -27.5t-11 -17.5v4l-369 -162q-18 -10 -27.5 -7t-13.5 13h2zM554 479 q3 -6 11 -6h416q4 0 9 6t1 10l-207 457q-4 6 -11 6t-11 -6l-207 -457q-4 -4 -1 -10z" />
<glyph unicode="&#xc2;" d="M94 37q0 -2 3 5t20.5 47t56.5 125t110.5 240.5t182.5 394t272 587.5q8 16 25 16h20q14 0 19.5 -5t9.5 -11l3 -6q3 -7 20.5 -45.5t56.5 -123.5t109.5 -241t180 -394.5t269.5 -586.5q6 -16 -2 -27.5t-25 -11.5h-180q-37 0 -51 35l-12 28q-10 23 -29.5 67t-56.5 130 q-4 6 -11 6h-624q-8 0 -10 -6l-103 -225q-6 -14 -17.5 -24.5t-31.5 -10.5h-180q-16 0 -24.5 10t-0.5 27zM455 1602q-4 6 0 13t10 11l273 213q4 4 14 4t18 -4l273 -213q6 -4 10 -11t0 -13l-55 -78q-10 -16 -33 -4l-211 131l-211 -131q-14 -10 -21.5 -8t-13.5 12zM554 479 q3 -6 11 -6h416q4 0 9 6t1 10l-207 457q-4 6 -11 6t-11 -6l-207 -457q-4 -4 -1 -10z" />
<glyph unicode="&#xc3;" d="M94 37q0 -2 3 5t20.5 47t56.5 125t110.5 240.5t182.5 394t272 587.5q8 16 25 16h20q14 0 19.5 -5t9.5 -11l3 -6q3 -7 20.5 -45.5t56.5 -123.5t109.5 -241t180 -394.5t269.5 -586.5q6 -16 -2 -27.5t-25 -11.5h-180q-37 0 -51 35l-12 28q-10 23 -29.5 67t-56.5 130 q-4 6 -11 6h-624q-8 0 -10 -6l-103 -225q-6 -14 -17.5 -24.5t-31.5 -10.5h-180q-16 0 -24.5 10t-0.5 27zM496 1700q-2 10 2 21h-2q8 14 24.5 41.5t42 56.5t60.5 50.5t82 21.5q41 0 69.5 -19.5t55.5 -44.5q23 -20 45 -35.5t55 -15.5q31 0 49.5 19.5t30.5 41.5 q10 18 21.5 28.5t27.5 -1.5l59 -43q18 -18 -2 -53q0 -2 -2 -5t-2 -5q-10 -16 -25.5 -41t-39 -47.5t-54 -38t-69.5 -15.5q-41 0 -75 22.5t-60 45.5q-23 16 -46.5 32.5t-48.5 16.5q-33 0 -48 -19.5t-29 -41.5q-10 -16 -21.5 -27.5t-30.5 -3.5l-59 45q-8 4 -10 14zM554 479 q3 -6 11 -6h416q4 0 9 6t1 10l-207 457q-4 6 -11 6t-11 -6l-207 -457q-4 -4 -1 -10z" />
<glyph unicode="&#xc4;" d="M94 37q0 -2 3 5t20.5 47t56.5 125t110.5 240.5t182.5 394t272 587.5q8 16 25 16h20q14 0 19.5 -5t9.5 -11l3 -6q3 -7 20.5 -45.5t56.5 -123.5t109.5 -241t180 -394.5t269.5 -586.5q6 -16 -2 -27.5t-25 -11.5h-180q-37 0 -51 35l-12 28q-10 23 -29.5 67t-56.5 130 q-4 6 -11 6h-624q-8 0 -10 -6l-103 -225q-6 -14 -17.5 -24.5t-31.5 -10.5h-180q-16 0 -24.5 10t-0.5 27zM402 1737q0 51 35.5 87t86.5 36t87 -36t36 -87q0 -49 -36 -86t-87 -37t-86.5 37t-35.5 86zM554 479q3 -6 11 -6h416q4 0 9 6t1 10l-207 457q-4 6 -11 6t-11 -6 l-207 -457q-4 -4 -1 -10zM922 1737q0 51 34.5 87t86.5 36q51 0 87.5 -36t36.5 -87q0 -49 -36.5 -86t-87.5 -37t-86 37t-35 86z" />
<glyph unicode="&#xc5;" d="M94 37q0 -2 3 5t20.5 47t56.5 125t110.5 240.5t182.5 394t272 587.5q8 16 25 16h20q14 0 19.5 -5t9.5 -11l3 -6q3 -7 20.5 -45.5t56.5 -123.5t109.5 -241t180 -394.5t269.5 -586.5q6 -16 -2 -27.5t-25 -11.5h-180q-37 0 -51 35l-12 28q-10 23 -29.5 67t-56.5 130 q-4 6 -11 6h-624q-8 0 -10 -6l-103 -225q-6 -14 -17.5 -24.5t-31.5 -10.5h-180q-16 0 -24.5 10t-0.5 27zM554 479q3 -6 11 -6h416q4 0 9 6t1 10l-207 457q-4 6 -11 6t-11 -6l-207 -457q-4 -4 -1 -10zM559 1743q0 47 17.5 88t48 71.5t70.5 48t87 17.5q45 0 86 -17.5t72 -48 t49.5 -71.5t18.5 -88t-18.5 -87t-49.5 -71t-72 -48t-86 -17q-47 0 -87 17t-70.5 48t-48 71t-17.5 87zM670 1743q0 -45 33.5 -79t78.5 -34q47 0 79 34t32 79q0 47 -32 78.5t-79 31.5q-45 0 -78.5 -31.5t-33.5 -78.5z" />
<glyph unicode="&#xc6;" horiz-adv-x="2054" d="M-8 10q-4 10 8 27l46 59q46 58 121 153t170 218t195 252q233 301 535 686q10 18 25.5 23.5t27.5 5.5h778q12 0 20.5 -9.5t8.5 -19.5v-170q0 -10 -8 -20.5t-21 -10.5h-573q-12 0 -12 -12q0 -47 1 -76t1 -59.5t-1 -73.5t-1 -119q0 -12 12 -12h473q10 0 19.5 -9t9.5 -20 v-174q0 -12 -9.5 -20t-19.5 -8h-473q-12 0 -12 -13v-366q0 -12 12 -13h573q12 0 20.5 -10t8.5 -20v-170q0 -10 -8 -19.5t-21 -9.5h-802q-12 0 -20.5 9t-8.5 20v237h-563q-10 0 -12 -6l-185 -225q-12 -14 -26.5 -24.5t-34.5 -10.5h-234q-16 0 -20 10zM675 479q1 -6 9 -6h383 v541q-10 0 -14 -6l-373 -519q-6 -4 -5 -10z" />
<glyph unicode="&#xc7;" horiz-adv-x="1415" d="M88 715q0 154 58.5 289t157.5 234t234.5 157.5t288.5 58.5q158 0 276 -48t222 -142q20 -23 0 -43l-127 -131q-18 -18 -37 2q-68 59 -152.5 90.5t-174.5 31.5q-102 0 -189.5 -38.5t-150 -106.5t-98.5 -158t-36 -190t36 -189.5t99.5 -156t150.5 -105.5t190 -39q96 0 177 33 t148 86q10 10 20.5 9t16.5 -9v2l131 -133q8 -10 6 -21.5t-10 -19.5h2q-104 -102 -232.5 -150t-267.5 -48q-23 0 -43 1t-43 3v-86q98 -12 151.5 -66.5t53.5 -140.5q0 -43 -16.5 -81t-45 -67.5t-67.5 -46t-84 -16.5t-85 20.5t-66 48.5q-8 10 -6 22.5t10 22.5l55 46q2 2 7 -2.5 t9 -8.5q16 -16 36 -22t36 -6q37 0 60.5 25.5t23.5 62.5q0 43 -38 74.5t-124 37.5q-16 4 -21 14.5t-5 14.5v178q-117 33 -215.5 99.5t-170 158.5t-111.5 207t-40 242z" />
<glyph unicode="&#xc8;" horiz-adv-x="1208" d="M238 29v1376q0 10 8 19.5t20 9.5h803q12 0 20.5 -9.5t8.5 -19.5v-170q0 -10 -8.5 -20.5t-20.5 -10.5h-573q-12 0 -13 -12v-336q0 -12 13 -12h473q10 0 19 -9.5t9 -19.5v-174q0 -12 -9 -20.5t-19 -8.5h-473q-12 0 -13 -12v-358q0 -12 13 -13h573q12 0 20.5 -10t8.5 -20 v-170q0 -10 -8.5 -19.5t-20.5 -9.5h-803q-12 0 -20 9t-8 20zM374.5 1695q-4.5 11 6.5 28l59 106q6 10 17.5 9t23.5 -7l344 -202q16 -12 10 -27l-41 -76q-10 -20 -36 -6l-369 162v-4q-10 6 -14.5 17z" />
<glyph unicode="&#xc9;" horiz-adv-x="1208" d="M238 29v1376q0 10 8 19.5t20 9.5h803q12 0 20.5 -9.5t8.5 -19.5v-170q0 -10 -8.5 -20.5t-20.5 -10.5h-573q-12 0 -13 -12v-336q0 -12 13 -12h473q10 0 19 -9.5t9 -19.5v-174q0 -12 -9 -20.5t-19 -8.5h-473q-12 0 -13 -12v-358q0 -12 13 -13h573q12 0 20.5 -10t8.5 -20 v-170q0 -10 -8.5 -19.5t-20.5 -9.5h-803q-12 0 -20 9t-8 20zM374 1602q-8 14 11 27l344 202q10 6 21 7.5t18 -9.5q14 -27 30.5 -53.5t30.5 -52.5h-2q8 -16 5 -27.5t-11 -17.5v4l-369 -162q-18 -10 -27.5 -7t-13.5 13h2z" />
<glyph unicode="&#xca;" horiz-adv-x="1208" d="M238 29v1376q0 10 8 19.5t20 9.5h803q12 0 20.5 -9.5t8.5 -19.5v-170q0 -10 -8.5 -20.5t-20.5 -10.5h-573q-12 0 -13 -12v-336q0 -12 13 -12h473q10 0 19 -9.5t9 -19.5v-174q0 -12 -9 -20.5t-19 -8.5h-473q-12 0 -13 -12v-358q0 -12 13 -13h573q12 0 20.5 -10t8.5 -20 v-170q0 -10 -8.5 -19.5t-20.5 -9.5h-803q-12 0 -20 9t-8 20zM305 1612q-4 6 0 13t10 11l273 213q4 4 14 4t18 -4l273 -213q6 -4 10 -11t0 -13l-55 -78q-10 -16 -33 -4l-211 131l-211 -131q-14 -10 -21.5 -8t-13.5 12z" />
<glyph unicode="&#xcb;" horiz-adv-x="1208" d="M238 29v1376q0 10 8 19.5t20 9.5h803q12 0 20.5 -9.5t8.5 -19.5v-170q0 -10 -8.5 -20.5t-20.5 -10.5h-573q-12 0 -13 -12v-336q0 -12 13 -12h473q10 0 19 -9.5t9 -19.5v-174q0 -12 -9 -20.5t-19 -8.5h-473q-12 0 -13 -12v-358q0 -12 13 -13h573q12 0 20.5 -10t8.5 -20 v-170q0 -10 -8.5 -19.5t-20.5 -9.5h-803q-12 0 -20 9t-8 20zM277 1728q0 51 35.5 87t86.5 36t87 -36t36 -87q0 -49 -36 -86t-87 -37t-86.5 37t-35.5 86zM797 1728q0 51 34.5 87t86.5 36q51 0 87.5 -36t36.5 -87q0 -49 -36.5 -86t-87.5 -37t-86 37t-35 86z" />
<glyph unicode="&#xcc;" horiz-adv-x="612" d="M79.5 1695q-4.5 11 6.5 28l59 106q6 10 17.5 9t23.5 -7l344 -202q16 -12 10 -27l-41 -76q-10 -20 -36 -6l-369 162v-4q-10 6 -14.5 17zM188 29v1376q0 10 9.5 19.5t19.5 9.5h191q10 0 19 -9.5t9 -19.5v-1376q0 -10 -9 -19.5t-19 -9.5h-191q-10 0 -19.5 9t-9.5 20z" />
<glyph unicode="&#xcd;" horiz-adv-x="612" d="M80 1602q-8 14 11 27l344 202q10 6 21 7.5t18 -9.5q14 -27 30.5 -53.5t30.5 -52.5h-2q8 -16 5 -27.5t-11 -17.5v4l-369 -162q-18 -10 -27.5 -7t-13.5 13h2zM188 29v1376q0 10 9.5 19.5t19.5 9.5h191q10 0 19 -9.5t9 -19.5v-1376q0 -10 -9 -19.5t-19 -9.5h-191 q-10 0 -19.5 9t-9.5 20z" />
<glyph unicode="&#xce;" horiz-adv-x="612" d="M10 1522q-4 6 0 13t10 11l273 213q4 4 14 4t18 -4l273 -213q6 -4 10 -11t0 -13l-55 -78q-10 -16 -33 -4l-211 131l-211 -131q-14 -10 -21.5 -8t-13.5 12zM188 29v1376q0 10 9.5 19.5t19.5 9.5h191q10 0 19 -9.5t9 -19.5v-1376q0 -10 -9 -19.5t-19 -9.5h-191 q-10 0 -19.5 9t-9.5 20z" />
<glyph unicode="&#xcf;" horiz-adv-x="612" d="M-73 1733q0 51 35.5 87t86.5 36t87 -36t36 -87q0 -49 -36 -86t-87 -37t-86.5 37t-35.5 86zM188 29v1376q0 10 9.5 19.5t19.5 9.5h191q10 0 19 -9.5t9 -19.5v-1376q0 -10 -9 -19.5t-19 -9.5h-191q-10 0 -19.5 9t-9.5 20zM447 1733q0 51 34.5 87t86.5 36q51 0 87.5 -36 t36.5 -87q0 -49 -36.5 -86t-87.5 -37t-86 37t-35 86z" />
<glyph unicode="&#xd0;" horiz-adv-x="1527" d="M236 29v1376q0 10 8 19.5t18 9.5h449q147 0 278 -56.5t229.5 -154t155 -227.5t56.5 -277q0 -150 -56.5 -281t-155 -228t-229.5 -153.5t-278 -56.5h-449q-10 0 -18 9t-8 20zM442 674q0 -12 8.5 -21.5t20.5 -9.5h684q14 0 22.5 9.5t8.5 21.5v119q0 10 -8.5 19t-22.5 9h-684 q-12 0 -20.5 -9t-8.5 -19v-119zM477 246q0 -12 12 -13h197q104 0 191.5 37t151 101.5t99 153.5t35.5 194q0 104 -35.5 192t-99 152.5t-150.5 101.5t-192 37h-197q-12 0 -12 -12v-944z" />
<glyph unicode="&#xd1;" horiz-adv-x="1566" d="M197 29v1398q0 10 9 18.5t19 8.5h37q31 0 53 -24l818 -887q4 -8 12 -4q6 2 6 10l2 856q0 10 8 19.5t21 9.5h192q10 0 19.5 -9.5t9.5 -19.5v-1399q0 -10 -9.5 -18t-19.5 -8h-33q-33 0 -57 24l-819 903q-2 4 -12 4q-8 -4 -9 -12l-2 -870q0 -10 -8 -19.5t-20 -9.5h-189 q-10 0 -19 9t-9 20zM506 1704q-2 10 2 21h-2q8 14 24.5 41.5t42 56.5t60.5 50.5t82 21.5q41 0 69.5 -19.5t55.5 -44.5q23 -20 45 -35.5t55 -15.5q31 0 49.5 19.5t30.5 41.5q10 18 21.5 28.5t27.5 -1.5l59 -43q18 -18 -2 -53q0 -2 -2 -5t-2 -5q-10 -16 -25.5 -41t-39 -47.5 t-54 -38t-69.5 -15.5q-41 0 -75 22.5t-60 45.5q-23 16 -46.5 32.5t-48.5 16.5q-33 0 -48 -19.5t-29 -41.5q-10 -16 -21.5 -27.5t-30.5 -3.5l-59 45q-8 4 -10 14z" />
<glyph unicode="&#xd2;" horiz-adv-x="1628" d="M90 711q0 154 57.5 289t156.5 234t233.5 157.5t287.5 58.5q176 0 328 -76q31 -16 16 -51q-4 -6 -15 -28.5t-25.5 -48t-28 -48t-17.5 -29.5q-8 -16 -26.5 -17t-36.5 7q-92 41 -195 41q-100 0 -188 -39t-154.5 -105.5t-104.5 -155.5t-38 -189t38 -188.5t104.5 -155 t154.5 -104.5t188 -38t189.5 38t155 104.5t104.5 154.5t39 189q0 39 -8.5 81t-20.5 80.5t-28.5 71.5t-32.5 51q-10 10 -12.5 21.5t1.5 19.5t11 17q31 27 53 49q20 18 38.5 36.5t24.5 22.5q10 10 24.5 21.5t37.5 -6.5q29 -25 57.5 -76t52 -115.5t38 -136.5t14.5 -137 q0 -154 -57.5 -288t-158 -233.5t-234.5 -157t-288 -57.5t-288 57.5t-233 157t-156.5 233.5t-57.5 288zM583.5 1695q-4.5 11 6.5 28l59 106q6 10 17.5 9t23.5 -7l344 -202q16 -12 10 -27l-41 -76q-10 -20 -36 -6l-369 162v-4q-10 6 -14.5 17z" />
<glyph unicode="&#xd3;" horiz-adv-x="1628" d="M90 711q0 154 57.5 289t156.5 234t233.5 157.5t287.5 58.5q176 0 328 -76q31 -16 16 -51q-4 -6 -15 -28.5t-25.5 -48t-28 -48t-17.5 -29.5q-8 -16 -26.5 -17t-36.5 7q-92 41 -195 41q-100 0 -188 -39t-154.5 -105.5t-104.5 -155.5t-38 -189t38 -188.5t104.5 -155 t154.5 -104.5t188 -38t189.5 38t155 104.5t104.5 154.5t39 189q0 39 -8.5 81t-20.5 80.5t-28.5 71.5t-32.5 51q-10 10 -12.5 21.5t1.5 19.5t11 17q31 27 53 49q20 18 38.5 36.5t24.5 22.5q10 10 24.5 21.5t37.5 -6.5q29 -25 57.5 -76t52 -115.5t38 -136.5t14.5 -137 q0 -154 -57.5 -288t-158 -233.5t-234.5 -157t-288 -57.5t-288 57.5t-233 157t-156.5 233.5t-57.5 288zM585 1602q-8 14 11 27l344 202q10 6 21 7.5t18 -9.5q14 -27 30.5 -53.5t30.5 -52.5h-2q8 -16 5 -27.5t-11 -17.5v4l-369 -162q-18 -10 -27.5 -7t-13.5 13h2z" />
<glyph unicode="&#xd4;" horiz-adv-x="1628" d="M90 711q0 154 57.5 289t156.5 234t233.5 157.5t287.5 58.5q176 0 328 -76q31 -16 16 -51q-4 -6 -15 -28.5t-25.5 -48t-28 -48t-17.5 -29.5q-8 -16 -26.5 -17t-36.5 7q-92 41 -195 41q-100 0 -188 -39t-154.5 -105.5t-104.5 -155.5t-38 -189t38 -188.5t104.5 -155 t154.5 -104.5t188 -38t189.5 38t155 104.5t104.5 154.5t39 189q0 39 -8.5 81t-20.5 80.5t-28.5 71.5t-32.5 51q-10 10 -12.5 21.5t1.5 19.5t11 17q31 27 53 49q20 18 38.5 36.5t24.5 22.5q10 10 24.5 21.5t37.5 -6.5q29 -25 57.5 -76t52 -115.5t38 -136.5t14.5 -137 q0 -154 -57.5 -288t-158 -233.5t-234.5 -157t-288 -57.5t-288 57.5t-233 157t-156.5 233.5t-57.5 288zM514 1620q-4 6 0 13t10 11l273 213q4 4 14 4t18 -4l273 -213q6 -4 10 -11t0 -13l-55 -78q-10 -16 -33 -4l-211 131l-211 -131q-14 -10 -21.5 -8t-13.5 12z" />
<glyph unicode="&#xd5;" horiz-adv-x="1628" d="M90 711q0 154 57.5 289t156.5 234t233.5 157.5t287.5 58.5q176 0 328 -76q31 -16 16 -51q-4 -6 -15 -28.5t-25.5 -48t-28 -48t-17.5 -29.5q-8 -16 -26.5 -17t-36.5 7q-92 41 -195 41q-100 0 -188 -39t-154.5 -105.5t-104.5 -155.5t-38 -189t38 -188.5t104.5 -155 t154.5 -104.5t188 -38t189.5 38t155 104.5t104.5 154.5t39 189q0 39 -8.5 81t-20.5 80.5t-28.5 71.5t-32.5 51q-10 10 -12.5 21.5t1.5 19.5t11 17q31 27 53 49q20 18 38.5 36.5t24.5 22.5q10 10 24.5 21.5t37.5 -6.5q29 -25 57.5 -76t52 -115.5t38 -136.5t14.5 -137 q0 -154 -57.5 -288t-158 -233.5t-234.5 -157t-288 -57.5t-288 57.5t-233 157t-156.5 233.5t-57.5 288zM500 2123.5q-2 10.5 2 20.5h-2q8 14 24.5 42t42 56.5t60.5 50t82 21.5q41 0 69.5 -19.5t55.5 -43.5q23 -20 45 -35.5t55 -15.5q31 0 49 19t31 42q10 18 21.5 28.5 t27.5 -1.5l59 -43q18 -18 -2 -54q0 -2 -2 -5t-2 -5q-10 -16 -25.5 -40.5t-39 -47t-54 -38t-69.5 -15.5q-41 0 -75 22.5t-60 44.5q-23 16 -46.5 33t-48.5 17q-33 0 -48 -19.5t-29 -42.5q-10 -16 -21.5 -27.5t-30.5 -3.5l-59 45q-8 4 -10 14.5zM502 1695.5q-2 10.5 2 20.5h-2 q8 12 24.5 41t42 56.5t60.5 49t80 21.5q41 0 69.5 -19.5t52.5 -41.5q23 -20 46.5 -37t54.5 -17t48 20.5t32 41.5q10 18 21 28.5t28 -1.5l57 -41q8 -8 8 -23.5t-10 -32.5q0 -2 -2 -5t-2 -5q-10 -16 -25.5 -39.5t-38 -46.5t-53 -38t-69.5 -15q-41 0 -75 23.5t-58 43.5 q-23 16 -45.5 33t-49.5 17q-31 0 -46 -19.5t-29 -42.5q-10 -16 -21.5 -27.5t-30.5 -3.5l-59 45q-8 4 -10 14.5z" />
<glyph unicode="&#xd6;" horiz-adv-x="1628" d="M90 711q0 154 57.5 289t156.5 234t233.5 157.5t287.5 58.5q176 0 328 -76q31 -16 16 -51q-4 -6 -15 -28.5t-25.5 -48t-28 -48t-17.5 -29.5q-8 -16 -26.5 -17t-36.5 7q-92 41 -195 41q-100 0 -188 -39t-154.5 -105.5t-104.5 -155.5t-38 -189t38 -188.5t104.5 -155 t154.5 -104.5t188 -38t189.5 38t155 104.5t104.5 154.5t39 189q0 39 -8.5 81t-20.5 80.5t-28.5 71.5t-32.5 51q-10 10 -12.5 21.5t1.5 19.5t11 17q31 27 53 49q20 18 38.5 36.5t24.5 22.5q10 10 24.5 21.5t37.5 -6.5q29 -25 57.5 -76t52 -115.5t38 -136.5t14.5 -137 q0 -154 -57.5 -288t-158 -233.5t-234.5 -157t-288 -57.5t-288 57.5t-233 157t-156.5 233.5t-57.5 288zM430 2161q0 51 36 87t87 36t87 -36t36 -87q0 -49 -36 -86t-87 -37t-87 36.5t-36 86.5zM467 1733q0 51 36 85.5t85 34.5q51 0 87 -34.5t36 -85.5q0 -49 -36 -86t-87 -37 q-49 0 -85 36.5t-36 86.5zM950 2161q0 51 35 87t86 36t88 -36t37 -87q0 -49 -37 -86t-88 -37t-86 36.5t-35 86.5zM981 1733q0 51 35 85.5t86 34.5q49 0 86 -34.5t37 -85.5q0 -49 -37 -86t-86 -37q-51 0 -86 36.5t-35 86.5z" />
<glyph unicode="&#xd7;" horiz-adv-x="911" d="M79 482.5q-1 11.5 7 19.5l217 215q14 18 0 33l-213 213q-8 8 -8 20t8 21l84 83q8 8 19.5 8.5t19.5 -8.5l213 -213q18 -18 33 0l215 213q8 10 20.5 10.5t20.5 -7.5l82 -82q10 -10 10 -22.5t-10 -20.5l-213 -215q-18 -14 0 -33l215 -215q8 -8 7 -19.5t-9 -19.5l-82 -82 q-8 -8 -20.5 -10t-20.5 6l-215 217q-14 14 -33 0l-215 -217q-8 -8 -19.5 -7t-21.5 11l-82 82q-8 8 -9 19.5z" />
<glyph unicode="&#xd8;" horiz-adv-x="1628" d="M90 711q0 154 57.5 289t156.5 234t233.5 157.5t287.5 58.5q176 0 328 -76q31 -16 16 -51q-4 -6 -15 -28.5t-25.5 -48t-28 -48t-17.5 -29.5q-8 -16 -26.5 -17t-36.5 7q-92 41 -195 41q-100 0 -188 -39t-154.5 -105.5t-104.5 -155.5t-38 -189t38 -188.5t104.5 -155 t154.5 -104.5t188 -38t189.5 38t155 104.5t104.5 154.5t39 189q0 39 -8.5 81t-20.5 80.5t-28.5 71.5t-32.5 51q-10 10 -12.5 21.5t1.5 19.5t11 17q31 27 53 49q20 18 38.5 36.5t24.5 22.5q10 10 24.5 21.5t37.5 -6.5q29 -25 57.5 -76t52 -115.5t38 -136.5t14.5 -137 q0 -154 -57.5 -288t-158 -233.5t-234.5 -157t-288 -57.5t-288 57.5t-233 157t-156.5 233.5t-57.5 288zM625 39l411 1391q6 20 27 20h151q16 0 23.5 -12.5t3.5 -28.5l-410 -1391q-8 -18 -26 -18h-154q-14 0 -22.5 11.5t-3.5 27.5z" />
<glyph unicode="&#xd9;" horiz-adv-x="1439" d="M156 541v864q0 10 8 19.5t18 9.5h195q12 0 20.5 -9.5t8.5 -19.5v-850q0 -68 22.5 -128t64.5 -105.5t99 -71t129 -25.5q70 0 128 25.5t99 71t64.5 104.5t23.5 127v852q0 10 8.5 19.5t20.5 9.5h190q10 0 20.5 -9.5t10.5 -19.5v-864q0 -117 -43 -218.5t-118.5 -178 t-179 -120.5t-224.5 -44t-224.5 44t-179 120.5t-118.5 178t-43 218.5zM489.5 1695q-4.5 11 6.5 28l59 106q6 10 17.5 9t23.5 -7l344 -202q16 -12 10 -27l-41 -76q-10 -20 -36 -6l-369 162v-4q-10 6 -14.5 17z" />
<glyph unicode="&#xda;" horiz-adv-x="1439" d="M156 541v864q0 10 8 19.5t18 9.5h195q12 0 20.5 -9.5t8.5 -19.5v-850q0 -68 22.5 -128t64.5 -105.5t99 -71t129 -25.5q70 0 128 25.5t99 71t64.5 104.5t23.5 127v852q0 10 8.5 19.5t20.5 9.5h190q10 0 20.5 -9.5t10.5 -19.5v-864q0 -117 -43 -218.5t-118.5 -178 t-179 -120.5t-224.5 -44t-224.5 44t-179 120.5t-118.5 178t-43 218.5zM491 1602q-8 14 11 27l344 202q10 6 21 7.5t18 -9.5q14 -27 30.5 -53.5t30.5 -52.5h-2q8 -16 5 -27.5t-11 -17.5v4l-369 -162q-18 -10 -27.5 -7t-13.5 13h2z" />
<glyph unicode="&#xdb;" horiz-adv-x="1439" d="M156 541v864q0 10 8 19.5t18 9.5h195q12 0 20.5 -9.5t8.5 -19.5v-850q0 -68 22.5 -128t64.5 -105.5t99 -71t129 -25.5q70 0 128 25.5t99 71t64.5 104.5t23.5 127v852q0 10 8.5 19.5t20.5 9.5h190q10 0 20.5 -9.5t10.5 -19.5v-864q0 -117 -43 -218.5t-118.5 -178 t-179 -120.5t-224.5 -44t-224.5 44t-179 120.5t-118.5 178t-43 218.5zM420 1618q-4 6 0 13t10 11l273 213q4 4 14 4t18 -4l273 -213q6 -4 10 -11t0 -13l-55 -78q-10 -16 -33 -4l-211 131l-211 -131q-14 -10 -21.5 -8t-13.5 12z" />
<glyph unicode="&#xdc;" horiz-adv-x="1439" d="M156 541v864q0 10 8 19.5t18 9.5h195q12 0 20.5 -9.5t8.5 -19.5v-850q0 -68 22.5 -128t64.5 -105.5t99 -71t129 -25.5q70 0 128 25.5t99 71t64.5 104.5t23.5 127v852q0 10 8.5 19.5t20.5 9.5h190q10 0 20.5 -9.5t10.5 -19.5v-864q0 -117 -43 -218.5t-118.5 -178 t-179 -120.5t-224.5 -44t-224.5 44t-179 120.5t-118.5 178t-43 218.5zM351 1737q0 51 35.5 87t86.5 36t87 -36t36 -87q0 -49 -36 -86t-87 -37t-86.5 37t-35.5 86zM871 1737q0 51 34.5 87t86.5 36q51 0 87.5 -36t36.5 -87q0 -49 -36.5 -86t-87.5 -37t-86 37t-35 86z" />
<glyph unicode="&#xdd;" horiz-adv-x="1251" d="M6 1391q-6 14 1 28.5t24 14.5h213q8 0 14 -5.5t10 -9.5l330 -477q12 -12 20 0l330 477q4 4 11.5 9.5t15.5 5.5h213q16 0 23.5 -14.5t0.5 -28.5l-481 -693q-2 0 -2 -6v-663q0 -10 -9 -19.5t-20 -9.5h-188q-12 0 -20.5 9t-8.5 20v661q0 6 -2 6zM397 1602q-8 14 11 27 l344 202q10 6 21 7.5t18 -9.5q14 -27 30.5 -53.5t30.5 -52.5h-2q8 -16 5 -27.5t-11 -17.5v4l-369 -162q-18 -10 -27.5 -7t-13.5 13h2z" />
<glyph unicode="&#xde;" horiz-adv-x="1269" d="M186 -461v1845q0 20 14.5 35t35.5 15h139q23 0 37 -14.5t14 -35.5v-462q0 -14 7 -15.5t11 2.5q35 20 75 37t87 23q100 16 191.5 -5.5t165 -73.5t125 -133.5t71.5 -183.5q18 -90 3 -174t-55 -155.5t-101.5 -128t-138 -89t-164 -38.5t-177.5 22q-10 4 -14 14.5t0 20.5 l61 154q14 35 50 24q66 -23 128 -5t109 63t71.5 108.5t16.5 132.5q-8 55 -38.5 99.5t-74.5 75t-97.5 45t-104.5 6.5q-98 -14 -152.5 -78t-54.5 -142v-989q0 -20 -14.5 -34.5t-36.5 -14.5h-139q-20 0 -35 14.5t-15 34.5z" />
<glyph unicode="&#xdf;" horiz-adv-x="1282" d="M129 -481v1335q0 193 54.5 312.5t142.5 187t196.5 92t218.5 24.5q63 0 131 -18t123.5 -57t91 -99.5t35.5 -144.5q0 -78 -31.5 -144.5t-66.5 -121.5q-27 -43 -47.5 -84t-20.5 -76q0 -31 21.5 -60.5t52.5 -68.5q23 -29 48.5 -60.5t46 -68.5t33.5 -81t13 -93 q0 -84 -29.5 -143.5t-76.5 -97.5t-106.5 -55t-120.5 -17q-23 0 -50.5 5t-31.5 27l-19 142q0 10 7.5 19t17.5 7q31 -2 60.5 5.5t53 21.5t39 37.5t15.5 54.5q0 51 -32 94t-71 88q-43 47 -79.5 96.5t-36.5 108.5q0 53 25.5 109.5t56.5 111.5q33 59 60.5 118.5t27.5 115.5 q0 27 -19.5 50t-49.5 38.5t-62.5 25t-59.5 9.5q-23 0 -76 -7.5t-108 -47.5t-97 -122.5t-42 -236.5v-1331q0 -10 -9.5 -19.5t-19.5 -9.5h-178q-12 0 -21.5 9t-9.5 20z" />
<glyph unicode="&#xe0;" horiz-adv-x="1177" d="M59 514q6 100 57 201q45 86 123 147.5t170 89t188.5 17t178.5 -67.5q14 -16 27.5 -12t13.5 26q0 20 15 37t36 17h147q23 0 38.5 -16.5t15.5 -37.5v-864q0 -23 -15.5 -37t-38.5 -14h-135q-23 0 -38 14.5t-15 36.5v197v72.5t1 65.5t1 48.5v20.5q0 94 -37 156.5t-104 99.5 q-49 27 -102.5 32t-102.5 -9.5t-91 -46.5t-69 -79q-41 -70 -29.5 -148.5t56.5 -141t117.5 -94t156.5 -7.5q20 6 34.5 -3t25.5 -26l55 -151q6 -16 -14 -25q-111 -37 -214.5 -26.5t-188.5 55.5t-147.5 118.5t-92 164t-23.5 190.5zM358.5 1285q-4.5 11 6.5 28l59 106 q6 10 17.5 9t23.5 -7l344 -202q16 -12 10 -27l-41 -76q-10 -20 -36 -6l-369 162v-4q-10 6 -14.5 17z" />
<glyph unicode="&#xe1;" horiz-adv-x="1177" d="M59 514q6 100 57 201q45 86 123 147.5t170 89t188.5 17t178.5 -67.5q14 -16 27.5 -12t13.5 26q0 20 15 37t36 17h147q23 0 38.5 -16.5t15.5 -37.5v-864q0 -23 -15.5 -37t-38.5 -14h-135q-23 0 -38 14.5t-15 36.5v197v72.5t1 65.5t1 48.5v20.5q0 94 -37 156.5t-104 99.5 q-49 27 -102.5 32t-102.5 -9.5t-91 -46.5t-69 -79q-41 -70 -29.5 -148.5t56.5 -141t117.5 -94t156.5 -7.5q20 6 34.5 -3t25.5 -26l55 -151q6 -16 -14 -25q-111 -37 -214.5 -26.5t-188.5 55.5t-147.5 118.5t-92 164t-23.5 190.5zM360 1192q-8 14 11 27l344 202q10 6 21 7.5 t18 -9.5q14 -27 30.5 -53.5t30.5 -52.5h-2q8 -16 5 -27.5t-11 -17.5v4l-369 -162q-18 -10 -27.5 -7t-13.5 13h2z" />
<glyph unicode="&#xe2;" horiz-adv-x="1177" d="M59 514q6 100 57 201q45 86 123 147.5t170 89t188.5 17t178.5 -67.5q14 -16 27.5 -12t13.5 26q0 20 15 37t36 17h147q23 0 38.5 -16.5t15.5 -37.5v-864q0 -23 -15.5 -37t-38.5 -14h-135q-23 0 -38 14.5t-15 36.5v197v72.5t1 65.5t1 48.5v20.5q0 94 -37 156.5t-104 99.5 q-49 27 -102.5 32t-102.5 -9.5t-91 -46.5t-69 -79q-41 -70 -29.5 -148.5t56.5 -141t117.5 -94t156.5 -7.5q20 6 34.5 -3t25.5 -26l55 -151q6 -16 -14 -25q-111 -37 -214.5 -26.5t-188.5 55.5t-147.5 118.5t-92 164t-23.5 190.5zM289 1119q-4 6 0 13t10 11l273 213q4 4 14 4 t18 -4l273 -213q6 -4 10 -11t0 -13l-55 -78q-10 -16 -33 -4l-211 131l-211 -131q-14 -10 -21.5 -8t-13.5 12z" />
<glyph unicode="&#xe3;" horiz-adv-x="1177" d="M59 514q6 100 57 201q45 86 123 147.5t170 89t188.5 17t178.5 -67.5q14 -16 27.5 -12t13.5 26q0 20 15 37t36 17h147q23 0 38.5 -16.5t15.5 -37.5v-864q0 -23 -15.5 -37t-38.5 -14h-135q-23 0 -38 14.5t-15 36.5v197v72.5t1 65.5t1 48.5v20.5q0 94 -37 156.5t-104 99.5 q-49 27 -102.5 32t-102.5 -9.5t-91 -46.5t-69 -79q-41 -70 -29.5 -148.5t56.5 -141t117.5 -94t156.5 -7.5q20 6 34.5 -3t25.5 -26l55 -151q6 -16 -14 -25q-111 -37 -214.5 -26.5t-188.5 55.5t-147.5 118.5t-92 164t-23.5 190.5zM275 1104q-2 10 2 21h-2q8 14 24.5 41.5 t42 56.5t60.5 50.5t82 21.5q41 0 69.5 -19.5t55.5 -44.5q23 -20 45 -35.5t55 -15.5q31 0 49.5 19.5t30.5 41.5q10 18 21.5 28.5t27.5 -1.5l59 -43q18 -18 -2 -53q0 -2 -2 -5t-2 -5q-10 -16 -25.5 -41t-39 -47.5t-54 -38t-69.5 -15.5q-41 0 -75 22.5t-60 45.5 q-23 16 -46.5 32.5t-48.5 16.5q-33 0 -48 -19.5t-29 -41.5q-10 -16 -21.5 -27.5t-30.5 -3.5l-59 45q-8 4 -10 14z" />
<glyph unicode="&#xe4;" horiz-adv-x="1177" d="M59 514q6 100 57 201q45 86 123 147.5t170 89t188.5 17t178.5 -67.5q14 -16 27.5 -12t13.5 26q0 20 15 37t36 17h147q23 0 38.5 -16.5t15.5 -37.5v-864q0 -23 -15.5 -37t-38.5 -14h-135q-23 0 -38 14.5t-15 36.5v197v72.5t1 65.5t1 48.5v20.5q0 94 -37 156.5t-104 99.5 q-49 27 -102.5 32t-102.5 -9.5t-91 -46.5t-69 -79q-41 -70 -29.5 -148.5t56.5 -141t117.5 -94t156.5 -7.5q20 6 34.5 -3t25.5 -26l55 -151q6 -16 -14 -25q-111 -37 -214.5 -26.5t-188.5 55.5t-147.5 118.5t-92 164t-23.5 190.5zM205 1141q0 51 35.5 87t86.5 36t87 -36 t36 -87q0 -49 -36 -86t-87 -37t-86.5 37t-35.5 86zM725 1141q0 51 34.5 87t86.5 36q51 0 87.5 -36t36.5 -87q0 -49 -36.5 -86t-87.5 -37t-86 37t-35 86z" />
<glyph unicode="&#xe5;" horiz-adv-x="1177" d="M59.5 514q6.5 100 57.5 201q45 86 122.5 147.5t170 89t188.5 17t178 -67.5q14 -16 27.5 -12t13.5 26q0 20 15.5 37t35.5 17h148q23 0 38 -16.5t15 -37.5v-864q0 -23 -15.5 -37t-37.5 -14h-135q-23 0 -38.5 14.5t-15.5 36.5v197v72.5t1 65.5t1 48.5v20.5q0 94 -36.5 156.5 t-104.5 99.5q-49 27 -102.5 32t-102.5 -9.5t-91 -46.5t-68 -79q-41 -70 -30 -148.5t56 -141t118 -94t157 -7.5q20 6 34.5 -3t24.5 -26l55 -151q6 -16 -14 -25q-111 -37 -214 -26.5t-188 55.5t-147.5 118.5t-92.5 164t-23.5 190.5zM391 1243q0 47 18.5 89t49 73t71.5 48 t88 17t88.5 -17t72 -48t49 -73t18.5 -89t-18.5 -88t-49 -71.5t-72 -49t-88.5 -18.5t-88 18.5t-71.5 49t-49 71.5t-18.5 88zM504 1243q0 -47 33.5 -81t80.5 -34t79 34t32 81t-31.5 80t-79.5 33q-47 0 -80.5 -33t-33.5 -80z" />
<glyph unicode="&#xe6;" horiz-adv-x="1859" d="M59 514q6 100 57 201q45 86 123 147.5t170 89t188.5 17t178.5 -67.5q14 -16 27.5 -12t13.5 26q0 20 15 37t36 17h147q23 0 38.5 -16.5t15.5 -37.5v-864q0 -23 -15.5 -37t-38.5 -14h-135q-23 0 -38 14.5t-15 36.5v197v72.5t1 65.5t1 48.5v20.5q0 94 -37 156.5t-104 99.5 q-49 27 -102.5 32t-102.5 -9.5t-91 -46.5t-69 -79q-41 -70 -29.5 -148.5t56.5 -141t117.5 -94t156.5 -7.5q20 6 34.5 -3t25.5 -26l55 -151q6 -16 -14 -25q-111 -37 -214.5 -26.5t-188.5 55.5t-147.5 118.5t-92 164t-23.5 190.5zM829 477q0 102 38 192.5t103.5 157t154 105.5 t186.5 39t187 -36t154.5 -104.5t101.5 -171t32 -237.5q0 -20 -6.5 -28.5t-26.5 -8.5q-176 -2 -319 -2h-367q-2 0 -4 -2v-2q2 -10 15 -39t42 -60.5t76 -59t119 -36.5q61 -8 110 0.5t87 23.5t66 36.5t46 42.5q8 8 18 2l111 -94q8 -8 8 -15q0 -8 -4 -12q-16 -18 -50 -51 t-88 -63.5t-130 -52t-174 -19.5t-187.5 41.5t-155 106.5t-104.5 156t-39 191zM1077 584q2 -2 4 -2h479q7 0 7 2q2 2 2 6q-10 25 -27.5 56.5t-47.5 59t-74 47t-105 19.5q-63 0 -107.5 -23.5t-72 -54t-41 -61.5t-17.5 -43v-6z" />
<glyph unicode="&#xe7;" horiz-adv-x="817" d="M78 479v2v2q0 102 38 192.5t101.5 157t147.5 105.5t174 39q115 0 225 -51q10 -8 19.5 -17.5t2.5 -27.5l-73 -136q-10 -16 -27.5 -23t-34.5 3q-49 20 -112 20q-49 0 -92.5 -20t-75 -56t-50 -84t-18.5 -104q0 -55 18.5 -104t50 -84t74.5 -55.5t93 -20.5q63 0 112 21 q16 10 33.5 2.5t28.5 -23.5l69 -125q12 -16 5 -31.5t-23 -23.5q-43 -20 -97.5 -35.5t-127.5 -15.5q-16 0 -29.5 1t-28.5 3v-60q98 -12 151.5 -66t53.5 -140q0 -43 -16.5 -81t-45 -68t-67.5 -46t-84 -16t-85 20.5t-66 48.5q-8 10 -6.5 22.5t10.5 22.5l55 45q2 2 7 -2t9 -8 q16 -16 36 -22.5t36 -6.5q37 0 60.5 26t23.5 62q0 43 -38 75t-124 38q-16 4 -21 14.5t-5 14.5v162q-61 29 -113.5 74.5t-91.5 104t-60.5 128t-21.5 147.5z" />
<glyph unicode="&#xe8;" horiz-adv-x="1064" d="M57 477q0 102 38 192.5t103.5 157t154 105.5t186.5 39t187 -36t154.5 -104.5t101.5 -171t32 -237.5q0 -20 -6.5 -28.5t-26.5 -8.5q-176 -2 -319 -2h-367q-2 0 -4 -2v-2q2 -10 15 -39t42 -60.5t76 -59t119 -36.5q61 -8 110 0.5t87 23.5t66 36.5t46 42.5q8 8 18 2l111 -94 q8 -8 8 -15q0 -8 -4 -12q-16 -18 -50 -51t-88 -63.5t-130 -52t-174 -19.5t-187.5 41.5t-155 106.5t-104.5 156t-39 191zM303.5 1285q-4.5 11 6.5 28l59 106q6 10 17.5 9t23.5 -7l344 -202q16 -12 10 -27l-41 -76q-10 -20 -36 -6l-369 162v-4q-10 6 -14.5 17zM305 584 q2 -2 4 -2h479q7 0 7 2q2 2 2 6q-10 25 -27.5 56.5t-47.5 59t-74 47t-105 19.5q-63 0 -107.5 -23.5t-72 -54t-41 -61.5t-17.5 -43v-6z" />
<glyph unicode="&#xe9;" horiz-adv-x="1064" d="M57 477q0 102 38 192.5t103.5 157t154 105.5t186.5 39t187 -36t154.5 -104.5t101.5 -171t32 -237.5q0 -20 -6.5 -28.5t-26.5 -8.5q-176 -2 -319 -2h-367q-2 0 -4 -2v-2q2 -10 15 -39t42 -60.5t76 -59t119 -36.5q61 -8 110 0.5t87 23.5t66 36.5t46 42.5q8 8 18 2l111 -94 q8 -8 8 -15q0 -8 -4 -12q-16 -18 -50 -51t-88 -63.5t-130 -52t-174 -19.5t-187.5 41.5t-155 106.5t-104.5 156t-39 191zM303 1192q-8 14 11 27l344 202q10 6 21 7.5t18 -9.5q14 -27 30.5 -53.5t30.5 -52.5h-2q8 -16 5 -27.5t-11 -17.5v4l-369 -162q-18 -10 -27.5 -7 t-13.5 13h2zM305 584q2 -2 4 -2h479q7 0 7 2q2 2 2 6q-10 25 -27.5 56.5t-47.5 59t-74 47t-105 19.5q-63 0 -107.5 -23.5t-72 -54t-41 -61.5t-17.5 -43v-6z" />
<glyph unicode="&#xea;" horiz-adv-x="1064" d="M57 477q0 102 38 192.5t103.5 157t154 105.5t186.5 39t187 -36t154.5 -104.5t101.5 -171t32 -237.5q0 -20 -6.5 -28.5t-26.5 -8.5q-176 -2 -319 -2h-367q-2 0 -4 -2v-2q2 -10 15 -39t42 -60.5t76 -59t119 -36.5q61 -8 110 0.5t87 23.5t66 36.5t46 42.5q8 8 18 2l111 -94 q8 -8 8 -15q0 -8 -4 -12q-16 -18 -50 -51t-88 -63.5t-130 -52t-174 -19.5t-187.5 41.5t-155 106.5t-104.5 156t-39 191zM234 1106q-4 6 0 13t10 11l273 213q4 4 14 4t18 -4l273 -213q6 -4 10 -11t0 -13l-55 -78q-10 -16 -33 -4l-211 131l-211 -131q-14 -10 -21.5 -8 t-13.5 12zM305 584q2 -2 4 -2h479q7 0 7 2q2 2 2 6q-10 25 -27.5 56.5t-47.5 59t-74 47t-105 19.5q-63 0 -107.5 -23.5t-72 -54t-41 -61.5t-17.5 -43v-6z" />
<glyph unicode="&#xeb;" horiz-adv-x="1064" d="M57 477q0 102 38 192.5t103.5 157t154 105.5t186.5 39t187 -36t154.5 -104.5t101.5 -171t32 -237.5q0 -20 -6.5 -28.5t-26.5 -8.5q-176 -2 -319 -2h-367q-2 0 -4 -2v-2q2 -10 15 -39t42 -60.5t76 -59t119 -36.5q61 -8 110 0.5t87 23.5t66 36.5t46 42.5q8 8 18 2l111 -94 q8 -8 8 -15q0 -8 -4 -12q-16 -18 -50 -51t-88 -63.5t-130 -52t-174 -19.5t-187.5 41.5t-155 106.5t-104.5 156t-39 191zM150 1139q0 51 35.5 87t86.5 36t87 -36t36 -87q0 -49 -36 -86t-87 -37t-86.5 37t-35.5 86zM305 584q2 -2 4 -2h479q7 0 7 2q2 2 2 6q-10 25 -27.5 56.5 t-47.5 59t-74 47t-105 19.5q-63 0 -107.5 -23.5t-72 -54t-41 -61.5t-17.5 -43v-6zM670 1139q0 51 34.5 87t86.5 36q51 0 87.5 -36t36.5 -87q0 -49 -36.5 -86t-87.5 -37t-86 37t-35 86z" />
<glyph unicode="&#xec;" horiz-adv-x="505" d="M26.5 1285q-4.5 11 6.5 28l59 106q6 10 17.5 9t23.5 -7l344 -202q16 -12 10 -27l-41 -76q-10 -20 -36 -6l-369 162v-4q-10 6 -14.5 17zM138 49v864q0 23 14 39.5t33 16.5h141q23 0 37 -16.5t14 -39.5v-864q0 -20 -14.5 -34.5t-36.5 -14.5h-141q-18 0 -32.5 14.5 t-14.5 34.5zM138 1126v144q0 23 14 37t33 14h141q51 0 51 -51v-144q0 -18 -14.5 -32.5t-36.5 -14.5h-141q-18 0 -32.5 14.5t-14.5 32.5z" />
<glyph unicode="&#xed;" horiz-adv-x="505" d="M26 1192q-8 14 11 27l344 202q10 6 21 7.5t18 -9.5q14 -27 30.5 -53.5t30.5 -52.5h-2q8 -16 5 -27.5t-11 -17.5v4l-369 -162q-18 -10 -27.5 -7t-13.5 13h2zM138 49v864q0 23 14 39.5t33 16.5h141q23 0 37 -16.5t14 -39.5v-864q0 -20 -14.5 -34.5t-36.5 -14.5h-141 q-18 0 -32.5 14.5t-14.5 34.5zM138 1126v144q0 23 14 37t33 14h141q51 0 51 -51v-144q0 -18 -14.5 -32.5t-36.5 -14.5h-141q-18 0 -32.5 14.5t-14.5 32.5z" />
<glyph unicode="&#xee;" horiz-adv-x="505" d="M-45 1100q-4 6 0 13t10 11l273 213q4 4 14 4t18 -4l273 -213q6 -4 10 -11t0 -13l-55 -78q-10 -16 -33 -4l-211 131l-211 -131q-14 -10 -21.5 -8t-13.5 12zM135 49v864q0 23 14.5 39.5t32.5 16.5h142q23 0 37 -16.5t14 -39.5v-864q0 -20 -14.5 -34.5t-36.5 -14.5h-142 q-18 0 -32.5 14.5t-14.5 34.5z" />
<glyph unicode="&#xef;" horiz-adv-x="505" d="M-129 1139q0 51 36 87t87 36t87 -36t36 -87q0 -49 -36 -86t-87 -37t-87 37t-36 86zM135 49v864q0 23 14.5 39.5t32.5 16.5h142q23 0 37 -16.5t14 -39.5v-864q0 -20 -14.5 -34.5t-36.5 -14.5h-142q-18 0 -32.5 14.5t-14.5 34.5zM391 1139q0 51 35 87t86 36t88 -36t37 -87 q0 -49 -37 -86t-88 -37t-86 37t-35 86z" />
<glyph unicode="&#xf0;" horiz-adv-x="1142" d="M70 973q0 96 36.5 182t100 150.5t147.5 101.5t178 37q121 0 214.5 -45t156 -122t94 -180.5t31.5 -217.5q0 -152 -41 -275t-104.5 -220t-143.5 -170t-157.5 -124t-145 -80.5t-106.5 -40.5q-35 -10 -43 21h-2l-47 125q-10 33 30 47q35 10 97.5 39.5t131 78t131 115 t97.5 150.5q8 18 -3 28.5t-28 1.5q-41 -18 -97 -33.5t-110 -15.5q-78 0 -152.5 29t-134 84t-95 139t-35.5 195zM279 973q0 -53 22 -105l334 334q-50 23 -103 23t-99 -19.5t-80 -54.5t-54 -81t-20 -97zM424 743q49 -24 108 -24q51 0 98.5 19.5t81 54t54 81t20.5 99.5 q0 59 -24 108z" />
<glyph unicode="&#xf1;" horiz-adv-x="1087" d="M129 49v850q0 18 15 31.5t38 13.5h125q23 0 36 -13t13 -32v-12q0 -8 7 -13.5t9 -5.5q18 -4 27 11q35 47 94.5 72.5t116.5 25.5q82 0 146.5 -29.5t110.5 -85t70.5 -131.5t24.5 -168v-514q0 -20 -13 -34.5t-36 -14.5h-139q-23 0 -37 14.5t-14 34.5v522q0 25 -8.5 54.5 t-27 55.5t-50 43t-80.5 17q-86 0 -136.5 -56t-50.5 -148v-488q0 -20 -15 -34.5t-38 -14.5h-135q-23 0 -38 14.5t-15 34.5zM230 1098q-2 10 2 21h-2q8 14 24.5 41.5t42 56.5t60.5 50.5t82 21.5q41 0 69.5 -19.5t55.5 -44.5q23 -20 45 -35.5t55 -15.5q31 0 49.5 19.5 t30.5 41.5q10 18 21.5 28.5t27.5 -1.5l59 -43q18 -18 -2 -53q0 -2 -2 -5t-2 -5q-10 -16 -25.5 -41t-39 -47.5t-54 -38t-69.5 -15.5q-41 0 -75 22.5t-60 45.5q-23 16 -46.5 32.5t-48.5 16.5q-33 0 -48 -19.5t-29 -41.5q-10 -16 -21.5 -27.5t-30.5 -3.5l-59 45q-8 4 -10 14z " />
<glyph unicode="&#xf2;" horiz-adv-x="1103" d="M80 479q0 141 64.5 252t166 173.5t226.5 68.5t245 -60q20 -10 11 -26l-78 -142q-10 -16 -27.5 -23t-34.5 3q-49 20 -112 20q-51 0 -94.5 -20t-75 -56t-49 -85t-17.5 -105q0 -115 66.5 -189.5t169.5 -74.5q57 0 107 19.5t87 55.5t58.5 84t21.5 105q0 37 -11 73t-28 64 q-16 35 15 60l122 110q11 10 19 2q51 -66 79.5 -144.5t28.5 -164.5q0 -102 -38.5 -192t-106.5 -157t-159 -105.5t-195 -38.5q-90 0 -174 38.5t-147.5 105.5t-101.5 157t-38 192zM321.5 1285q-4.5 11 6.5 28l59 106q6 10 17.5 9t23.5 -7l344 -202q16 -12 10 -27l-41 -76 q-10 -20 -36 -6l-369 162v-4q-10 6 -14.5 17z" />
<glyph unicode="&#xf3;" horiz-adv-x="1103" d="M80 479q0 141 64.5 252t166 173.5t226.5 68.5t245 -60q20 -10 11 -26l-78 -142q-10 -16 -27.5 -23t-34.5 3q-49 20 -112 20q-51 0 -94.5 -20t-75 -56t-49 -85t-17.5 -105q0 -115 66.5 -189.5t169.5 -74.5q57 0 107 19.5t87 55.5t58.5 84t21.5 105q0 37 -11 73t-28 64 q-16 35 15 60l122 110q11 10 19 2q51 -66 79.5 -144.5t28.5 -164.5q0 -102 -38.5 -192t-106.5 -157t-159 -105.5t-195 -38.5q-90 0 -174 38.5t-147.5 105.5t-101.5 157t-38 192zM323 1192q-8 14 11 27l344 202q10 6 21 7.5t18 -9.5q14 -27 30.5 -53.5t30.5 -52.5h-2 q8 -16 5 -27.5t-11 -17.5v4l-369 -162q-18 -10 -27.5 -7t-13.5 13h2z" />
<glyph unicode="&#xf4;" horiz-adv-x="1103" d="M80 479q0 141 64.5 252t166 173.5t226.5 68.5t245 -60q20 -10 11 -26l-78 -142q-10 -16 -27.5 -23t-34.5 3q-49 20 -112 20q-51 0 -94.5 -20t-75 -56t-49 -85t-17.5 -105q0 -115 66.5 -189.5t169.5 -74.5q57 0 107 19.5t87 55.5t58.5 84t21.5 105q0 37 -11 73t-28 64 q-16 35 15 60l122 110q11 10 19 2q51 -66 79.5 -144.5t28.5 -164.5q0 -102 -38.5 -192t-106.5 -157t-159 -105.5t-195 -38.5q-90 0 -174 38.5t-147.5 105.5t-101.5 157t-38 192zM252 1106q-4 6 0 13t10 11l273 213q4 4 14 4t18 -4l273 -213q6 -4 10 -11t0 -13l-55 -78 q-10 -16 -33 -4l-211 131l-211 -131q-14 -10 -21.5 -8t-13.5 12z" />
<glyph unicode="&#xf5;" horiz-adv-x="1103" d="M80 479q0 141 64.5 252t166 173.5t226.5 68.5t245 -60q20 -10 11 -26l-78 -142q-10 -16 -27.5 -23t-34.5 3q-49 20 -112 20q-51 0 -94.5 -20t-75 -56t-49 -85t-17.5 -105q0 -115 66.5 -189.5t169.5 -74.5q57 0 107 19.5t87 55.5t58.5 84t21.5 105q0 37 -11 73t-28 64 q-16 35 15 60l122 110q11 10 19 2q51 -66 79.5 -144.5t28.5 -164.5q0 -102 -38.5 -192t-106.5 -157t-159 -105.5t-195 -38.5q-90 0 -174 38.5t-147.5 105.5t-101.5 157t-38 192zM238 1093q-2 10 2 21h-2q8 14 24.5 41.5t42 56.5t60.5 50.5t82 21.5q41 0 69.5 -19.5 t55.5 -44.5q23 -20 45 -35.5t55 -15.5q31 0 49.5 19.5t30.5 41.5q10 18 21.5 28.5t27.5 -1.5l59 -43q18 -18 -2 -53q0 -2 -2 -5t-2 -5q-10 -16 -25.5 -41t-39 -47.5t-54 -38t-69.5 -15.5q-41 0 -75 22.5t-60 45.5q-23 16 -46.5 32.5t-48.5 16.5q-33 0 -48 -19.5t-29 -41.5 q-10 -16 -21.5 -27.5t-30.5 -3.5l-59 45q-8 4 -10 14z" />
<glyph unicode="&#xf6;" horiz-adv-x="1103" d="M80 479q0 141 64.5 252t166 173.5t226.5 68.5t245 -60q20 -10 11 -26l-78 -142q-10 -16 -27.5 -23t-34.5 3q-49 20 -112 20q-51 0 -94.5 -20t-75 -56t-49 -85t-17.5 -105q0 -115 66.5 -189.5t169.5 -74.5q57 0 107 19.5t87 55.5t58.5 84t21.5 105q0 37 -11 73t-28 64 q-16 35 15 60l122 110q11 10 19 2q51 -66 79.5 -144.5t28.5 -164.5q0 -102 -38.5 -192t-106.5 -157t-159 -105.5t-195 -38.5q-90 0 -174 38.5t-147.5 105.5t-101.5 157t-38 192zM168 1139q0 51 35.5 87t86.5 36t87 -36t36 -87q0 -49 -36 -86t-87 -37t-86.5 37t-35.5 86z M688 1139q0 51 34.5 87t86.5 36q51 0 87.5 -36t36.5 -87q0 -49 -36.5 -86t-87.5 -37t-86 37t-35 86z" />
<glyph unicode="&#xf7;" horiz-adv-x="1046" d="M82 657v117q0 12 9 21.5t20 9.5h827q10 0 19.5 -9.5t9.5 -21.5v-117q0 -10 -9.5 -19t-19.5 -9h-827q-10 0 -19.5 9t-9.5 19zM385 326q0 55 38 94t93 39t95 -39t40 -94t-40 -95.5t-95 -40.5t-93 40.5t-38 95.5zM385 1124q0 55 39 94t94 39t95 -38.5t40 -94.5 q0 -53 -40 -94t-95 -41t-94 41t-39 94z" />
<glyph unicode="&#xf8;" horiz-adv-x="1103" d="M80 479q0 141 64.5 252t166 173.5t226.5 68.5t245 -60q20 -10 11 -26l-78 -142q-10 -16 -27.5 -23t-34.5 3q-49 20 -112 20q-51 0 -94.5 -20t-75 -56t-49 -85t-17.5 -105q0 -115 66.5 -189.5t169.5 -74.5q57 0 107 19.5t87 55.5t58.5 84t21.5 105q0 37 -11 73t-28 64 q-16 35 15 60l122 110q11 10 19 2q51 -66 79.5 -144.5t28.5 -164.5q0 -102 -38.5 -192t-106.5 -157t-159 -105.5t-195 -38.5q-90 0 -174 38.5t-147.5 105.5t-101.5 157t-38 192zM265 -194l411 1391q6 20 27 20h151q16 0 23.5 -12.5t3.5 -28.5l-410 -1391q-8 -18 -26 -18 h-154q-14 0 -22.5 11.5t-3.5 27.5z" />
<glyph unicode="&#xf9;" horiz-adv-x="1126" d="M135 414v499q0 23 14.5 39.5t36.5 16.5h137q23 0 37 -16.5t14 -39.5v-510q0 -25 8.5 -57.5t28 -63t52 -52t81.5 -21.5q41 0 76 18.5t59.5 49t39 71.5t14.5 88v477q0 23 13 39.5t36 16.5h139q20 0 34.5 -16.5t14.5 -39.5v-862q0 -23 -14 -37t-35 -14h-129q-23 0 -38 14.5 t-15 36.5v35q0 16 -8 16q-12 4 -17.5 1t-13.5 -11q-18 -25 -42.5 -43t-53.5 -32.5t-58.5 -21.5t-54.5 -7q-166 0 -261 110.5t-95 315.5zM333.5 1285q-4.5 11 6.5 28l59 106q6 10 17.5 9t23.5 -7l344 -202q16 -12 10 -27l-41 -76q-10 -20 -36 -6l-369 162v-4q-10 6 -14.5 17z " />
<glyph unicode="&#xfa;" horiz-adv-x="1126" d="M135 414v499q0 23 14.5 39.5t36.5 16.5h137q23 0 37 -16.5t14 -39.5v-510q0 -25 8.5 -57.5t28 -63t52 -52t81.5 -21.5q41 0 76 18.5t59.5 49t39 71.5t14.5 88v477q0 23 13 39.5t36 16.5h139q20 0 34.5 -16.5t14.5 -39.5v-862q0 -23 -14 -37t-35 -14h-129q-23 0 -38 14.5 t-15 36.5v35q0 16 -8 16q-12 4 -17.5 1t-13.5 -11q-18 -25 -42.5 -43t-53.5 -32.5t-58.5 -21.5t-54.5 -7q-166 0 -261 110.5t-95 315.5zM333 1192q-8 14 11 27l344 202q10 6 21 7.5t18 -9.5q14 -27 30.5 -53.5t30.5 -52.5h-2q8 -16 5 -27.5t-11 -17.5v4l-369 -162 q-18 -10 -27.5 -7t-13.5 13h2z" />
<glyph unicode="&#xfb;" horiz-adv-x="1126" d="M135 414v499q0 23 14.5 39.5t36.5 16.5h137q23 0 37 -16.5t14 -39.5v-510q0 -25 8.5 -57.5t28 -63t52 -52t81.5 -21.5q41 0 76 18.5t59.5 49t39 71.5t14.5 88v477q0 23 13 39.5t36 16.5h139q20 0 34.5 -16.5t14.5 -39.5v-862q0 -23 -14 -37t-35 -14h-129q-23 0 -38 14.5 t-15 36.5v35q0 16 -8 16q-12 4 -17.5 1t-13.5 -11q-18 -25 -42.5 -43t-53.5 -32.5t-58.5 -21.5t-54.5 -7q-166 0 -261 110.5t-95 315.5zM264 1102q-4 6 0 13t10 11l273 213q4 4 14 4t18 -4l273 -213q6 -4 10 -11t0 -13l-55 -78q-10 -16 -33 -4l-211 131l-211 -131 q-14 -10 -21.5 -8t-13.5 12z" />
<glyph unicode="&#xfc;" horiz-adv-x="1126" d="M135 414v499q0 23 14.5 39.5t36.5 16.5h137q23 0 37 -16.5t14 -39.5v-510q0 -25 8.5 -57.5t28 -63t52 -52t81.5 -21.5q41 0 76 18.5t59.5 49t39 71.5t14.5 88v477q0 23 13 39.5t36 16.5h139q20 0 34.5 -16.5t14.5 -39.5v-862q0 -23 -14 -37t-35 -14h-129q-23 0 -38 14.5 t-15 36.5v35q0 16 -8 16q-12 4 -17.5 1t-13.5 -11q-18 -25 -42.5 -43t-53.5 -32.5t-58.5 -21.5t-54.5 -7q-166 0 -261 110.5t-95 315.5z" />
<glyph unicode="&#xfd;" horiz-adv-x="1157" d="M65 -324q-10 14 5 19l20 8q16 4 49 15.5t92 31.5q10 4 16.5 4t12.5 -10q33 -41 87 -73.5t146 -32.5q72 0 121 24.5t80 63t44.5 88t13.5 98.5v180q-4 12 -16.5 12t-22.5 -12q-37 -47 -97.5 -69.5t-113.5 -22.5q-82 0 -147.5 29.5t-111.5 84t-71 131.5t-25 169v499 q0 23 15.5 39.5t36.5 16.5h139q18 0 33.5 -16.5t15.5 -39.5v-510q0 -25 8 -54.5t27.5 -56t52.5 -45t84 -18.5q80 0 132 57.5t52 149.5v477q0 23 13.5 39.5t35.5 16.5h146q23 0 37 -16.5t14 -39.5v-1036q-2 -86 -36 -167t-97.5 -143.5t-156.5 -101t-214 -38.5 q-154 0 -257 70.5t-163 178.5zM350 1192q-8 14 11 27l344 202q10 6 21 7.5t18 -9.5q14 -27 30.5 -53.5t30.5 -52.5h-2q8 -16 5 -27.5t-11 -17.5v4l-369 -162q-18 -10 -27.5 -7t-13.5 13h2z" />
<glyph unicode="&#xfe;" horiz-adv-x="1200" d="M186 -461v1845q0 20 14.5 35t35.5 15h139q23 0 37 -14.5t14 -35.5v-462q0 -14 7 -15.5t11 2.5q35 20 75 37t87 23q100 16 191.5 -5.5t165 -73.5t125 -133.5t71.5 -183.5q18 -90 3 -174t-55 -155.5t-101.5 -128t-138 -89t-164 -38.5t-177.5 22q-10 4 -14 14.5t0 20.5 l61 154q14 35 50 24q66 -23 128 -5t109 63t71.5 108.5t16.5 132.5q-8 55 -38.5 99.5t-74.5 75t-97.5 45t-104.5 6.5q-98 -14 -152.5 -78t-54.5 -142v-989q0 -20 -14.5 -34.5t-36.5 -14.5h-139q-20 0 -35 14.5t-15 34.5z" />
<glyph unicode="&#xff;" horiz-adv-x="1157" d="M65 -324q-10 14 5 19l20 8q16 4 49 15.5t92 31.5q10 4 16.5 4t12.5 -10q33 -41 87 -73.5t146 -32.5q72 0 121 24.5t80 63t44.5 88t13.5 98.5v180q-4 12 -16.5 12t-22.5 -12q-37 -47 -97.5 -69.5t-113.5 -22.5q-82 0 -147.5 29.5t-111.5 84t-71 131.5t-25 169v499 q0 23 15.5 39.5t36.5 16.5h139q18 0 33.5 -16.5t15.5 -39.5v-510q0 -25 8 -54.5t27.5 -56t52.5 -45t84 -18.5q80 0 132 57.5t52 149.5v477q0 23 13.5 39.5t35.5 16.5h146q23 0 37 -16.5t14 -39.5v-1036q-2 -86 -36 -167t-97.5 -143.5t-156.5 -101t-214 -38.5 q-154 0 -257 70.5t-163 178.5z" />
<glyph unicode="&#x152;" horiz-adv-x="1972" d="M88 715q0 154 57.5 289t156.5 234t233.5 157.5t287.5 58.5q78 0 134.5 -9t64.5 -11h2h848q12 0 20.5 -9.5t8.5 -19.5v-170q0 -10 -8.5 -20.5t-20.5 -10.5h-615q-12 0 -12 -12v-336q0 -12 12 -12h512q10 0 19.5 -9.5t9.5 -19.5v-174q0 -12 -9 -20.5t-20 -8.5h-512 q-12 0 -12 -12v-358q0 -12 12 -13h615q12 0 20.5 -10t8.5 -20v-170q0 -10 -8.5 -19.5t-20.5 -9.5h-848h-2q-4 0 -24.5 -4t-49 -7t-61.5 -6t-64 -3q-154 0 -288 57t-233 156.5t-156.5 233.5t-57.5 288zM338 715q0 -100 38 -189.5t104.5 -156t154.5 -105.5t188 -39 q45 0 85 5.5t81 19.5q8 4 8 12v907q0 6 -8 11q-41 14 -82 21t-84 7q-100 0 -188 -39t-154.5 -106.5t-104.5 -157.5t-38 -190z" />
<glyph unicode="&#x153;" horiz-adv-x="1828" d="M80 479q0 141 64.5 252t166 173.5t226.5 68.5t245 -60q20 -10 11 -26l-78 -142q-10 -16 -27.5 -23t-34.5 3q-49 20 -112 20q-51 0 -94.5 -20t-75 -56t-49 -85t-17.5 -105q0 -115 66.5 -189.5t169.5 -74.5q57 0 107 19.5t87 55.5t58.5 84t21.5 105q0 37 -11 73t-28 64 q-16 35 15 60l122 110q11 10 19 2q51 -66 79.5 -144.5t28.5 -164.5q0 -102 -38.5 -192t-106.5 -157t-159 -105.5t-195 -38.5q-90 0 -174 38.5t-147.5 105.5t-101.5 157t-38 192zM815 477q0 102 38 192.5t103.5 157t154 105.5t186.5 39t187 -36t154.5 -104.5t101.5 -171 t32 -237.5q0 -20 -6.5 -28.5t-26.5 -8.5q-176 -2 -319 -2h-367q-2 0 -4 -2v-2q2 -10 15 -39t42 -60.5t76 -59t119 -36.5q61 -8 110 0.5t87 23.5t66 36.5t46 42.5q8 8 18 2l111 -94q8 -8 8 -15q0 -8 -4 -12q-16 -18 -50 -51t-88 -63.5t-130 -52t-174 -19.5t-187.5 41.5 t-155 106.5t-104.5 156t-39 191zM1063 584q2 -2 4 -2h479q7 0 7 2q2 2 2 6q-10 25 -27.5 56.5t-47.5 59t-74 47t-105 19.5q-63 0 -107.5 -23.5t-72 -54t-41 -61.5t-17.5 -43v-6z" />
<glyph unicode="&#x178;" horiz-adv-x="1251" d="M6 1391q-6 14 1 28.5t24 14.5h213q8 0 14 -5.5t10 -9.5l330 -477q12 -12 20 0l330 477q4 4 11.5 9.5t15.5 5.5h213q16 0 23.5 -14.5t0.5 -28.5l-481 -693q-2 0 -2 -6v-663q0 -10 -9 -19.5t-20 -9.5h-188q-12 0 -20.5 9t-8.5 20v661q0 6 -2 6zM221 1733q0 51 36 85.5 t85 34.5q51 0 87 -34.5t36 -85.5q0 -49 -36 -86t-87 -37q-49 0 -85 36.5t-36 86.5zM242 2161q0 51 35.5 87t87.5 36q51 0 86.5 -36t35.5 -87q0 -49 -35.5 -86t-86.5 -37t-87 36.5t-36 86.5zM735 1733q0 51 35 85.5t86 34.5q49 0 86 -34.5t37 -85.5q0 -49 -37 -86t-86 -37 q-51 0 -86 36.5t-35 86.5zM762 2161q0 51 34.5 87t86.5 36q51 0 88 -36t37 -87q0 -49 -37 -86t-88 -37t-86 36.5t-35 86.5z" />
<glyph unicode="&#x2c6;" horiz-adv-x="755" d="M82 1690q-4 6 0 13t10 11l273 213q4 4 14 4t18 -4l273 -213q6 -4 10 -11t0 -13l-55 -78q-10 -16 -33 -4l-211 131l-211 -131q-14 -10 -21.5 -8t-13.5 12z" />
<glyph unicode="&#x2dc;" horiz-adv-x="786" d="M78 1714q-2 10 2 21h-2q8 14 24.5 41.5t42 56.5t60.5 50.5t82 21.5q41 0 69.5 -19.5t55.5 -44.5q23 -20 45 -35.5t55 -15.5q31 0 49.5 19.5t30.5 41.5q10 18 21.5 28.5t27.5 -1.5l59 -43q18 -18 -2 -53q0 -2 -2 -5t-2 -5q-10 -16 -25.5 -41t-39 -47.5t-54 -38 t-69.5 -15.5q-41 0 -75 22.5t-60 45.5q-23 16 -46.5 32.5t-48.5 16.5q-33 0 -48 -19.5t-29 -41.5q-10 -16 -21.5 -27.5t-30.5 -3.5l-59 45q-8 4 -10 14z" />
<glyph unicode="&#x2000;" horiz-adv-x="1157" />
<glyph unicode="&#x2001;" horiz-adv-x="2314" />
<glyph unicode="&#x2002;" horiz-adv-x="1157" />
<glyph unicode="&#x2003;" horiz-adv-x="2314" />
<glyph unicode="&#x2004;" horiz-adv-x="771" />
<glyph unicode="&#x2005;" horiz-adv-x="578" />
<glyph unicode="&#x2006;" horiz-adv-x="385" />
<glyph unicode="&#x2007;" horiz-adv-x="385" />
<glyph unicode="&#x2008;" horiz-adv-x="289" />
<glyph unicode="&#x2009;" horiz-adv-x="462" />
<glyph unicode="&#x200a;" horiz-adv-x="128" />
<glyph unicode="&#x2010;" horiz-adv-x="1032" d="M135 510v119q0 10 8.5 19t20.5 9h684q14 0 22.5 -9t8.5 -19v-119q0 -12 -8.5 -21.5t-22.5 -9.5h-684q-12 0 -20.5 9.5t-8.5 21.5z" />
<glyph unicode="&#x2011;" horiz-adv-x="1032" d="M135 510v119q0 10 8.5 19t20.5 9h684q14 0 22.5 -9t8.5 -19v-119q0 -12 -8.5 -21.5t-22.5 -9.5h-684q-12 0 -20.5 9.5t-8.5 21.5z" />
<glyph unicode="&#x2012;" horiz-adv-x="1032" d="M135 510v119q0 10 8.5 19t20.5 9h684q14 0 22.5 -9t8.5 -19v-119q0 -12 -8.5 -21.5t-22.5 -9.5h-684q-12 0 -20.5 9.5t-8.5 21.5z" />
<glyph unicode="&#x2013;" horiz-adv-x="1153" d="M115 469v78q0 29 28 28h873q29 0 28 -28v-78q0 -10 -8 -19.5t-20 -9.5h-873q-12 0 -20 9.5t-8 19.5z" />
<glyph unicode="&#x2014;" horiz-adv-x="1705" d="M113 469v78q0 29 28 28h1395q29 0 29 -28v-78q0 -10 -8.5 -19.5t-20.5 -9.5h-1395q-12 0 -20 9.5t-8 19.5z" />
<glyph unicode="&#x2018;" horiz-adv-x="448" d="M53 1083q0 111 57.5 204t143.5 177q14 14 30.5 13.5t30.5 -15.5l19 -20q12 -12 9 -30.5t-15 -29.5q-23 -23 -49.5 -48t-49 -53t-35 -58.5t-6.5 -63.5q2 -8 11.5 -19.5t31.5 -9.5q53 4 91 -35.5t38 -93.5q0 -53 -39.5 -92t-99.5 -39q-27 0 -56.5 10.5t-54 35t-41 65.5 t-16.5 102z" />
<glyph unicode="&#x2019;" horiz-adv-x="413" d="M53 1001q0 53 38 93.5t91 35.5q23 -2 32 9.5t11 19.5q6 33 -6 63.5t-34.5 58.5t-49 53.5t-49.5 47.5q-12 10 -15 29t9 31l18 20q31 31 62 2q86 -84 143 -177t57 -204q0 -61 -16 -102t-40.5 -65.5t-54.5 -35t-56 -10.5q-59 0 -99.5 39t-40.5 92z" />
<glyph unicode="&#x201a;" horiz-adv-x="569" d="M115 109q0 53 40 92t99 39q27 0 55.5 -11.5t53 -36t40 -66.5t15.5 -103q0 -72 -21.5 -131.5t-50.5 -106.5t-61.5 -81t-53.5 -52q-16 -16 -32 2l-31 33q-12 16 4 28q8 6 28.5 23.5t42 45.5t42 66.5t28.5 86.5q2 18 -10 34q-14 14 -33 11q-8 -2 -26 -2q-53 0 -91 37.5 t-38 91.5z" />
<glyph unicode="&#x201c;" horiz-adv-x="772" d="M53 1083q0 111 57.5 204t143.5 177q14 14 30.5 13.5t30.5 -15.5l19 -20q12 -12 9 -30.5t-15 -29.5q-23 -23 -49.5 -48t-49 -53t-35 -58.5t-6.5 -63.5q2 -8 11.5 -19.5t31.5 -9.5q53 4 91 -35.5t38 -93.5q0 -53 -39.5 -92t-99.5 -39q-27 0 -56.5 10.5t-54 35t-41 65.5 t-16.5 102zM406 1083q0 111 57 204t143 177q14 14 30.5 13.5t31.5 -15.5l18 -20q12 -12 9 -30.5t-15 -29.5q-23 -23 -49.5 -48t-49 -53t-34.5 -58.5t-6 -63.5q2 -8 11 -19.5t32 -9.5q53 4 91 -35.5t38 -93.5q0 -53 -40 -92t-100 -39q-27 0 -56.5 10.5t-54 35t-40.5 65.5 t-16 102z" />
<glyph unicode="&#x201d;" horiz-adv-x="763" d="M53 1001q0 53 38 93.5t91 35.5q23 -2 32 9.5t11 19.5q6 33 -6 63.5t-34.5 58.5t-49 53.5t-49.5 47.5q-12 10 -15 29t9 31l18 20q31 31 62 2q86 -84 143 -177t57 -204q0 -61 -16 -102t-40.5 -65.5t-54.5 -35t-56 -10.5q-59 0 -99.5 39t-40.5 92zM406 1001q0 53 37.5 93.5 t91.5 35.5q23 -2 31.5 9.5t11.5 19.5q6 33 -6.5 63.5t-35 58.5t-49 53.5t-49.5 47.5q-12 10 -15 29t9 31l19 20q31 31 61 2q86 -84 143.5 -177t57.5 -204q0 -61 -16.5 -102t-41 -65.5t-54.5 -35t-56 -10.5q-59 0 -99 39t-40 92z" />
<glyph unicode="&#x201e;" horiz-adv-x="890" d="M115 109q0 53 40 92t99 39q27 0 55.5 -11.5t53 -36t40 -66.5t15.5 -103q0 -72 -21.5 -131.5t-50.5 -106.5t-61.5 -81t-53.5 -52q-16 -16 -32 2l-31 33q-12 16 4 28q8 6 28.5 23.5t42 45.5t42 66.5t28.5 86.5q2 18 -10 34q-14 14 -33 11q-8 -2 -26 -2q-53 0 -91 37.5 t-38 91.5zM473 109q0 53 40 92t99 39q27 0 55.5 -11.5t53 -36t40 -66.5t15.5 -103q0 -72 -21.5 -131.5t-50 -106.5t-61.5 -81t-53 -52q-6 -6 -15.5 -6t-17.5 8l-31 33q-12 16 4 28q8 6 29 23.5t42.5 45.5t42 66.5t28.5 86.5q2 18 -10 34q-14 14 -33 11q-8 -2 -27 -2 q-53 0 -91 37.5t-38 91.5z" />
<glyph unicode="&#x2022;" horiz-adv-x="802" d="M84 461q0 66 25.5 124t68.5 102t99.5 69.5t117.5 25.5q68 0 126.5 -25.5t103.5 -69.5t70.5 -102.5t25.5 -123.5q0 -63 -25.5 -120.5t-70.5 -100.5t-103.5 -69t-126.5 -26q-61 0 -117.5 26t-99.5 69t-68.5 100t-25.5 121z" />
<glyph unicode="&#x2026;" horiz-adv-x="1382" d="M100 119q0 59 41 100t99 41q59 0 100 -41t41 -100q0 -55 -41 -97t-100 -42q-57 0 -98.5 42t-41.5 97zM557 119q0 59 40 100t97 41q59 0 101.5 -41t42.5 -100q0 -55 -42 -97t-102 -42q-57 0 -97 42t-40 97zM1004 119q0 59 40.5 100t100.5 41q59 0 100 -41t41 -100 q0 -55 -41 -97t-100 -42t-100 42t-41 97z" />
<glyph unicode="&#x202f;" horiz-adv-x="462" />
<glyph unicode="&#x2039;" horiz-adv-x="548" d="M92 755.5q6 16.5 29 16.5h119q10 0 15 -5t9 -11q6 -6 31 -41q23 -29 68 -92.5t131 -178.5q8 -12 8 -20q2 -12 -4 -23v-2l-215 -319q-8 -8 -15 -12q-8 -4 -12 -5h-129q-20 0 -25.5 14.5t2.5 31.5v2l127 286q12 27 0 54l-135 270q-10 18 -4 34.5z" />
<glyph unicode="&#x203a;" horiz-adv-x="567" d="M92 755.5q6 16.5 29 16.5h119q10 0 15 -5t9 -11q6 -6 31 -41q23 -29 68 -92.5t131 -178.5q8 -12 8 -20q2 -12 -4 -23v-2l-215 -319q-8 -8 -15 -12q-8 -4 -12 -5h-129q-20 0 -25.5 14.5t2.5 31.5v2l127 286q12 27 0 54l-135 270q-10 18 -4 34.5z" />
<glyph unicode="&#x205f;" horiz-adv-x="578" />
<glyph unicode="&#x20ac;" horiz-adv-x="1574" d="M29 621q0 16 10 26t27 10h215q-2 16 -2 29.5v28.5v30.5t2 30.5h-215q-16 0 -26.5 10.5t-10.5 26.5t10 26.5t27 10.5h225q25 129 89 239.5t160.5 191.5t218.5 127t259 46q158 0 275.5 -48t222.5 -142q20 -23 0 -43l-127 -131q-18 -18 -37 2q-68 59 -153 90.5t-175 31.5 q-86 0 -161 -27.5t-134 -76.5t-101 -115.5t-61 -144.5h760q16 0 26.5 -10.5t10.5 -26.5t-10.5 -26.5t-26.5 -10.5h-774q-2 -14 -2 -27.5v-27.5q0 -16 1 -31.5t3 -32.5h670q16 0 26.5 -10t10.5 -26t-10.5 -26.5t-26.5 -10.5h-656q20 -76 63.5 -140.5t103 -111.5t133 -74 t157.5 -27q96 0 177 33t149 86q10 10 20 9t17 -9v2l131 -133q8 -10 6 -21.5t-10 -19.5h2q-104 -102 -232.5 -150t-267.5 -48q-137 0 -259 46t-218.5 126.5t-162 191.5t-89.5 240h-223q-16 0 -26.5 10t-10.5 27z" />
<glyph unicode="&#x2122;" horiz-adv-x="1527" d="M115 1329v76q0 12 9 21.5t19 9.5h430q12 0 21.5 -9.5t9.5 -21.5v-76q0 -12 -9 -20.5t-22 -8.5h-133q-12 0 -12 -12v-465q0 -10 -9 -19t-20 -9h-82q-12 0 -20 9t-8 19v465q0 12 -13 12h-133q-10 0 -19 8.5t-9 20.5zM694 827v4l109 592q4 23 28 23h9q23 0 26 -16l183 -390 q2 -6 10 -6q6 0 10 6l188 390q6 16 25 16h8q25 0 29 -23l113 -594v-4q0 -10 -8.5 -20t-22.5 -10h-82q-10 0 -16.5 8t-10.5 16q-2 2 -2 4l-47 260q0 8 -10 9q-10 0 -12 -7l-134 -284q-4 -12 -22 -13h-12q-20 0 -27 15h2v2l-129 280q-4 6 -10 7q-10 0 -10 -9l-52 -264 q-2 -10 -10 -17t-18 -7h-76q-12 0 -20.5 11t-8.5 21z" />
<glyph unicode="&#x25fc;" horiz-adv-x="972" d="M0 0v973h973v-973h-973z" />
</font>
</defs>
</svg>
